AtkinsonHyperlegibleMono-Regular.sfdir
StartChar: numbersign
Encoding: 35 35 261
Width: 632
GlyphClass: 1
Flags: W
LayerCount: 2
Fore
SplineSet
142 183 m 1,0,-1
 33 183 l 1,1,-1
 43 253 l 1,2,-1
 150 253 l 1,3,-1
 171 415 l 1,4,-1
 63 415 l 1,5,-1
 72 485 l 1,6,-1
 180 485 l 1,7,-1
 204 668 l 1,8,-1
 279 668 l 1,9,-1
 255 485 l 1,10,-1
 415 485 l 1,11,-1
 439 668 l 1,12,-1
 514 668 l 1,13,-1
 490 485 l 1,14,-1
 599 485 l 1,15,-1
 589 415 l 1,16,-1
 483 415 l 1,17,-1
 462 253 l 1,18,-1
 569 253 l 1,19,-1
 560 183 l 1,20,-1
 453 183 l 1,21,-1
 429 0 l 1,22,-1
 353 0 l 1,23,-1
 377 183 l 1,24,-1
 218 183 l 1,25,-1
 194 0 l 1,26,-1
 118 0 l 1,27,-1
 142 183 l 1,0,-1
386 253 m 1,28,-1
 407 415 l 1,29,-1
 247 415 l 1,30,-1
 226 253 l 1,31,-1
 386 253 l 1,28,-1
EndSplineSet
EndChar
StartChar: dollar
Encoding: 36 36 304
Width: 632
GlyphClass: 1
Flags: W
LayerCount: 2
Fore
SplineSet
148 35 m 128,-1,1
 86 75 86 75 63 145 c 1,2,-1
 143 176 l 1,3,4
 157 127 157 127 196 97.5 c 128,-1,5
 235 68 235 68 287 61 c 1,6,-1
 287 315 l 1,7,-1
 254 322 l 2,8,9
 171 342 171 342 125 382 c 128,-1,10
 79 422 79 422 79 493 c 0,11,12
 79 544 79 544 106.5 584.5 c 128,-1,13
 134 625 134 625 181.5 649 c 128,-1,14
 229 673 229 673 287 678 c 1,15,-1
 287 758 l 1,16,-1
 335 758 l 1,17,-1
 335 680 l 1,18,19
 405 677 405 677 461.5 645.5 c 128,-1,20
 518 614 518 614 546 556 c 1,21,-1
 466 525 l 1,22,23
 449 561 449 561 413 582 c 128,-1,24
 377 603 377 603 335 608 c 1,25,-1
 335 383 l 1,26,-1
 366 375 l 2,27,28
 469 351 469 351 519 310 c 128,-1,29
 569 269 569 269 569 190 c 0,30,31
 569 132 569 132 537.5 88 c 128,-1,32
 506 44 506 44 452.5 18.5 c 128,-1,33
 399 -7 399 -7 335 -11 c 1,34,-1
 335 -90 l 1,35,-1
 287 -90 l 1,36,-1
 287 -11 l 1,37,0
 210 -5 210 -5 148 35 c 128,-1,1
442 95.5 m 128,-1,39
 483 128 483 128 483 186 c 0,40,41
 483 228 483 228 453.5 254 c 128,-1,42
 424 280 424 280 354 298 c 2,43,-1
 335 303 l 1,44,-1
 335 59 l 1,45,38
 401 63 401 63 442 95.5 c 128,-1,39
199 573.5 m 128,-1,47
 165 545 165 545 165 497 c 0,48,49
 165 461 165 461 192.5 435.5 c 128,-1,50
 220 410 220 410 269 398 c 2,51,-1
 287 394 l 1,52,-1
 287 608 l 1,53,46
 233 602 233 602 199 573.5 c 128,-1,47
EndSplineSet
EndChar
StartChar: percent
Encoding: 37 37 332
Width: 632
GlyphClass: 1
Flags: W
LayerCount: 2
Fore
SplineSet
87.5 400 m 128,-1,1
 53 420 53 420 33 455 c 128,-1,2
 13 490 13 490 13 531 c 256,3,4
 13 572 13 572 33 606.5 c 128,-1,5
 53 641 53 641 87.5 661 c 128,-1,6
 122 681 122 681 163 681 c 256,7,8
 204 681 204 681 238.5 661 c 128,-1,9
 273 641 273 641 292.5 606.5 c 128,-1,10
 312 572 312 572 312 531 c 256,11,12
 312 490 312 490 292.5 455 c 128,-1,13
 273 420 273 420 238.5 400 c 128,-1,14
 204 380 204 380 163 380 c 256,15,0
 122 380 122 380 87.5 400 c 128,-1,1
224.5 467.5 m 128,-1,17
 250 494 250 494 250 531 c 256,18,19
 250 568 250 568 224.5 594 c 128,-1,20
 199 620 199 620 163 620 c 0,21,22
 126 620 126 620 100.5 594 c 128,-1,23
 75 568 75 568 75 531 c 0,24,25
 75 493 75 493 100.5 467 c 128,-1,26
 126 441 126 441 163 441 c 0,27,16
 199 441 199 441 224.5 467.5 c 128,-1,17
463 668 m 1,28,-1
 534 668 l 1,29,-1
 169 0 l 1,30,-1
 98 0 l 1,31,-1
 463 668 l 1,28,-1
393.5 6 m 128,-1,33
 359 26 359 26 339 61 c 128,-1,34
 319 96 319 96 319 137 c 256,35,36
 319 178 319 178 339 212.5 c 128,-1,37
 359 247 359 247 393.5 267 c 128,-1,38
 428 287 428 287 469 287 c 256,39,40
 510 287 510 287 544.5 267 c 128,-1,41
 579 247 579 247 598.5 212.5 c 128,-1,42
 618 178 618 178 618 137 c 256,43,44
 618 96 618 96 598.5 61 c 128,-1,45
 579 26 579 26 544.5 6 c 128,-1,46
 510 -14 510 -14 469 -14 c 256,47,32
 428 -14 428 -14 393.5 6 c 128,-1,33
530.5 73.5 m 128,-1,49
 556 100 556 100 556 137 c 256,50,51
 556 174 556 174 530.5 200 c 128,-1,52
 505 226 505 226 469 226 c 0,53,54
 432 226 432 226 406.5 200 c 128,-1,55
 381 174 381 174 381 137 c 0,56,57
 381 99 381 99 406.5 73 c 128,-1,58
 432 47 432 47 469 47 c 0,59,48
 505 47 505 47 530.5 73.5 c 128,-1,49
EndSplineSet
EndChar
StartChar: ampersand
Encoding: 38 38 289
Width: 632
GlyphClass: 1
Flags: W
LayerCount: 2
Fore
SplineSet
79 40 m 128,-1,1
 21 92 21 92 21 178 c 0,2,3
 21 246 21 246 66 298 c 128,-1,4
 111 350 111 350 191 386 c 1,5,6
 120 467 120 467 120 537 c 0,7,8
 120 580 120 580 141 614.5 c 128,-1,9
 162 649 162 649 199 669 c 128,-1,10
 236 689 236 689 283 689 c 0,11,12
 324 689 324 689 360.5 671.5 c 128,-1,13
 397 654 397 654 419 619.5 c 128,-1,14
 441 585 441 585 441 538 c 0,15,16
 441 482 441 482 404 439 c 128,-1,17
 367 396 367 396 306 366 c 1,18,-1
 443 209 l 1,19,20
 467 264 467 264 473 349 c 1,21,-1
 548 349 l 1,22,23
 544 291 544 291 529.5 239 c 128,-1,24
 515 187 515 187 493 148 c 1,25,-1
 620 0 l 1,26,-1
 523 0 l 1,27,-1
 446 88 l 1,28,29
 361 -12 361 -12 234 -12 c 0,30,0
 137 -12 137 -12 79 40 c 128,-1,1
398 143 m 1,32,-1
 235 332 l 1,33,34
 171 304 171 304 137.5 268 c 128,-1,35
 104 232 104 232 104 183 c 0,36,37
 104 125 104 125 142 93 c 128,-1,38
 180 61 180 61 237 61 c 0,39,31
 341 61 341 61 398 143 c 1,32,-1
341.5 466 m 128,-1,41
 369 497 369 497 369 536 c 0,42,43
 369 576 369 576 343.5 599 c 128,-1,44
 318 622 318 622 283 622 c 0,45,46
 244 622 244 622 219.5 598.5 c 128,-1,47
 195 575 195 575 195 539 c 0,48,49
 195 510 195 510 211.5 483 c 128,-1,50
 228 456 228 456 266 415 c 1,51,40
 314 435 314 435 341.5 466 c 128,-1,41
EndSplineSet
EndChar
StartChar: parenleft
Encoding: 40 40 268
Width: 632
GlyphClass: 1
Flags: W
LayerCount: 2
Fore
SplineSet
229 43.5 m 128,-1,1
 175 156 175 156 175 273 c 256,2,3
 175 390 175 390 229 502.5 c 128,-1,4
 283 615 283 615 384 708 c 1,5,-1
 488 708 l 1,6,7
 378 611 378 611 319 498.5 c 128,-1,8
 260 386 260 386 260 273 c 256,9,10
 260 160 260 160 319 47.5 c 128,-1,11
 378 -65 378 -65 488 -162 c 1,12,-1
 384 -162 l 1,13,0
 283 -69 283 -69 229 43.5 c 128,-1,1
EndSplineSet
EndChar
StartChar: parenright
Encoding: 41 41 269
Width: 632
GlyphClass: 1
Flags: W
LayerCount: 2
Fore
SplineSet
313 47.5 m 128,-1,1
 372 160 372 160 372 273 c 256,2,3
 372 386 372 386 313 498.5 c 128,-1,4
 254 611 254 611 144 708 c 1,5,-1
 248 708 l 1,6,7
 349 615 349 615 403 502.5 c 128,-1,8
 457 390 457 390 457 273 c 256,9,10
 457 156 457 156 403 43.5 c 128,-1,11
 349 -69 349 -69 248 -162 c 1,12,-1
 144 -162 l 1,13,0
 254 -65 254 -65 313 47.5 c 128,-1,1
EndSplineSet
EndChar
StartChar: asterisk
Encoding: 42 42 260
Width: 632
GlyphClass: 1
Flags: W
LayerCount: 2
Fore
SplineSet
189 362 m 1,0,-1
 271 475 l 1,1,-1
 138 516 l 1,2,-1
 155 571 l 1,3,-1
 288 528 l 1,4,-1
 288 667 l 1,5,-1
 345 667 l 1,6,-1
 345 528 l 1,7,-1
 477 571 l 1,8,-1
 495 516 l 1,9,-1
 362 475 l 1,10,-1
 445 362 l 1,11,-1
 399 328 l 1,12,-1
 316 439 l 1,13,-1
 236 329 l 1,14,-1
 189 362 l 1,0,-1
EndSplineSet
EndChar
StartChar: plus
Encoding: 43 43 311
Width: 632
GlyphClass: 1
Flags: W
LayerCount: 2
Fore
SplineSet
279 211 m 1,0,-1
 65 211 l 1,1,-1
 65 285 l 1,2,-1
 279 285 l 1,3,-1
 279 496 l 1,4,-1
 353 496 l 1,5,-1
 353 285 l 1,6,-1
 567 285 l 1,7,-1
 567 211 l 1,8,-1
 353 211 l 1,9,-1
 353 0 l 1,10,-1
 279 0 l 1,11,-1
 279 211 l 1,0,-1
EndSplineSet
EndChar
StartChar: comma
Encoding: 44 44 250
Width: 632
GlyphClass: 1
Flags: W
LayerCount: 2
Fore
SplineSet
264 12.5 m 128,-1,1
 247 32 247 32 247 58 c 0,2,3
 247 87 247 87 267.5 107.5 c 128,-1,4
 288 128 288 128 317 128 c 256,5,6
 346 128 346 128 366 107.5 c 128,-1,7
 386 87 386 87 386 58 c 0,8,9
 386 43 386 43 379 25 c 2,10,-1
 313 -144 l 1,11,-1
 254 -144 l 1,12,-1
 306 -11 l 1,13,0
 281 -7 281 -7 264 12.5 c 128,-1,1
EndSplineSet
EndChar
StartChar: period
Encoding: 46 46 249
Width: 632
GlyphClass: 1
Flags: W
LayerCount: 2
Fore
SplineSet
266.5 8.5 m 128,-1,1
 246 29 246 29 246 58 c 256,2,3
 246 87 246 87 266.5 107.5 c 128,-1,4
 287 128 287 128 316 128 c 256,5,6
 345 128 345 128 365.5 107.5 c 128,-1,7
 386 87 386 87 386 58 c 256,8,9
 386 29 386 29 365.5 8.5 c 128,-1,10
 345 -12 345 -12 316 -12 c 256,11,0
 287 -12 287 -12 266.5 8.5 c 128,-1,1
EndSplineSet
EndChar
StartChar: two
Encoding: 50 50 231
Width: 632
GlyphClass: 5
Flags: W
LayerCount: 2
Fore
SplineSet
298.5 242.5 m 128,-1,1
 377 314 377 314 414 374 c 128,-1,2
 451 434 451 434 451 493 c 0,3,4
 451 545 451 545 416 578 c 128,-1,5
 381 611 381 611 323 611 c 0,6,7
 272 611 272 611 234 583 c 128,-1,8
 196 555 196 555 184 497 c 1,9,-1
 102 525 l 1,10,11
 122 597 122 597 181 638.5 c 128,-1,12
 240 680 240 680 326 680 c 0,13,14
 420 680 420 680 479 631 c 128,-1,15
 538 582 538 582 538 494 c 0,16,17
 538 384 538 384 447 280.5 c 128,-1,18
 356 177 356 177 202 75 c 1,19,-1
 557 75 l 1,20,-1
 557 0 l 1,21,-1
 86 0 l 1,22,-1
 86 73 l 1,23,0
 220 171 220 171 298.5 242.5 c 128,-1,1
EndSplineSet
Substitution2: "'sups' Superscript in Latin lookup 6 subtable" uni00B2
AlternateSubs2: "'aalt' Access All Alternates in Latin lookup 0 subtable" uni00B2
EndChar
StartChar: five
Encoding: 53 53 234
Width: 632
GlyphClass: 1
Flags: W
LayerCount: 2
Fore
SplineSet
166.5 33 m 128,-1,1
 110 78 110 78 90 151 c 1,2,-1
 168 175 l 1,3,4
 194 57 194 57 317 57 c 0,5,6
 358 57 358 57 393 76.5 c 128,-1,7
 428 96 428 96 448.5 133 c 128,-1,8
 469 170 469 170 469 220 c 0,9,10
 469 273 469 273 448 309.5 c 128,-1,11
 427 346 427 346 392.5 363.5 c 128,-1,12
 358 381 358 381 320 381 c 0,13,14
 276 381 276 381 241 361 c 128,-1,15
 206 341 206 341 184 305 c 1,16,-1
 107 330 l 1,17,-1
 148 668 l 1,18,-1
 527 668 l 1,19,-1
 527 593 l 1,20,-1
 218 593 l 1,21,-1
 193 393 l 1,22,23
 218 421 218 421 255.5 435.5 c 128,-1,24
 293 450 293 450 337 450 c 0,25,26
 396 450 396 450 446 422.5 c 128,-1,27
 496 395 496 395 526 343 c 128,-1,28
 556 291 556 291 556 220 c 0,29,30
 556 146 556 146 523 94 c 128,-1,31
 490 42 490 42 436 15 c 128,-1,32
 382 -12 382 -12 318 -12 c 0,33,0
 223 -12 223 -12 166.5 33 c 128,-1,1
EndSplineSet
EndChar
StartChar: less
Encoding: 60 60 318
Width: 632
GlyphClass: 1
Flags: W
LayerCount: 2
Fore
SplineSet
80 216 m 1,0,-1
 80 280 l 1,1,-1
 552 494 l 1,2,-1
 552 408 l 1,3,-1
 182 248 l 1,4,-1
 552 88 l 1,5,-1
 552 3 l 1,6,-1
 80 216 l 1,0,-1
EndSplineSet
EndChar
StartChar: equal
Encoding: 61 61 315
Width: 632
GlyphClass: 1
Flags: W
LayerCount: 2
Fore
SplineSet
65 379 m 1,0,-1
 567 379 l 1,1,-1
 567 304 l 1,2,-1
 65 304 l 1,3,-1
 65 379 l 1,0,-1
65 197 m 1,4,-1
 567 197 l 1,5,-1
 567 123 l 1,6,-1
 65 123 l 1,7,-1
 65 197 l 1,4,-1
EndSplineSet
EndChar
StartChar: question
Encoding: 63 63 256
Width: 632
GlyphClass: 1
Flags: W
LayerCount: 2
Fore
SplineSet
271 312 m 128,-1,1
 293 347 293 347 353 385 c 0,2,3
 401 415 401 415 424.5 445.5 c 128,-1,4
 448 476 448 476 448 512 c 0,5,6
 448 556 448 556 414 582.5 c 128,-1,7
 380 609 380 609 325 609 c 0,8,9
 266 609 266 609 231 576.5 c 128,-1,10
 196 544 196 544 188 501 c 1,11,-1
 108 523 l 1,12,13
 122 595 122 595 182 637.5 c 128,-1,14
 242 680 242 680 327 680 c 0,15,16
 381 680 381 680 428.5 661 c 128,-1,17
 476 642 476 642 505.5 604 c 128,-1,18
 535 566 535 566 535 513 c 0,19,20
 535 456 535 456 505 416 c 128,-1,21
 475 376 475 376 407 327 c 0,22,23
 374 304 374 304 358.5 289 c 128,-1,24
 343 274 343 274 338.5 259.5 c 128,-1,25
 334 245 334 245 334 220 c 2,26,-1
 334 184 l 1,27,-1
 249 184 l 1,28,-1
 249 217 l 2,29,0
 249 277 249 277 271 312 c 128,-1,1
248 6.5 m 128,-1,31
 229 25 229 25 229 51 c 256,32,33
 229 77 229 77 248 95.5 c 128,-1,34
 267 114 267 114 293 114 c 256,35,36
 319 114 319 114 337 95.5 c 128,-1,37
 355 77 355 77 355 51 c 256,38,39
 355 25 355 25 337 6.5 c 128,-1,40
 319 -12 319 -12 293 -12 c 256,41,30
 267 -12 267 -12 248 6.5 c 128,-1,31
EndSplineSet
EndChar
StartChar: A
Encoding: 65 65 2
Width: 632
GlyphClass: 2
Flags: W
AnchorPoint: "Anchor-2" 598 10 basechar 0
AnchorPoint: "Anchor-1" 316 668 basechar 0
AnchorPoint: "Anchor-0" 316 0 basechar 0
LayerCount: 2
Fore
SplineSet
270 668 m 1,0,-1
 363 668 l 1,1,-1
 598 0 l 1,2,-1
 513 0 l 1,3,-1
 461 153 l 1,4,-1
 169 153 l 1,5,-1
 116 0 l 1,6,-1
 34 0 l 1,7,-1
 270 668 l 1,0,-1
438 226 m 1,8,-1
 317 577 l 1,9,-1
 313 577 l 1,10,-1
 191 226 l 1,11,-1
 438 226 l 1,8,-1
EndSplineSet
Substitution2: "Single Substitution lookup 14 subtable" ordfeminine
AlternateSubs2: "'aalt' Access All Alternates in Latin lookup 0 subtable" ordfeminine
EndChar
StartChar: B
Encoding: 66 66 13
Width: 632
GlyphClass: 2
Flags: W
AnchorPoint: "Anchor-1" 319 668 basechar 0
AnchorPoint: "Anchor-0" 319 0 basechar 0
LayerCount: 2
Fore
SplineSet
102 668 m 1,0,-1
 341 668 l 2,1,2
 441 668 441 668 492.5 621.5 c 128,-1,3
 544 575 544 575 544 496 c 0,4,5
 544 449 544 449 521.5 409.5 c 128,-1,6
 499 370 499 370 455 351 c 1,7,8
 511 331 511 331 541 289.5 c 128,-1,9
 571 248 571 248 571 188 c 0,10,11
 571 102 571 102 517 51 c 128,-1,12
 463 0 463 0 359 0 c 2,13,-1
 102 0 l 1,14,-1
 102 668 l 1,0,-1
452 105.5 m 128,-1,16
 485 139 485 139 485 193 c 0,17,18
 485 245 485 245 451 277 c 128,-1,19
 417 309 417 309 351 309 c 2,20,-1
 186 309 l 1,21,-1
 186 72 l 1,22,-1
 352 72 l 2,23,15
 419 72 419 72 452 105.5 c 128,-1,16
431 409.5 m 128,-1,25
 459 438 459 438 459 486 c 0,26,27
 459 535 459 535 427.5 565.5 c 128,-1,28
 396 596 396 596 335 596 c 2,29,-1
 186 596 l 1,30,-1
 186 381 l 1,31,-1
 346 381 l 2,32,24
 403 381 403 381 431 409.5 c 128,-1,25
EndSplineSet
EndChar
StartChar: D
Encoding: 68 68 19
Width: 632
GlyphClass: 2
Flags: W
AnchorPoint: "Anchor-1" 322 668 basechar 0
AnchorPoint: "Anchor-0" 320 0 basechar 0
LayerCount: 2
Fore
SplineSet
73 668 m 1,0,-1
 246 668 l 2,1,2
 408 668 408 668 500.5 589.5 c 128,-1,3
 593 511 593 511 593 335 c 256,4,5
 593 159 593 159 500.5 79.5 c 128,-1,6
 408 0 408 0 246 0 c 2,7,-1
 73 0 l 1,8,-1
 73 668 l 1,0,-1
434 128 m 128,-1,10
 507 183 507 183 507 335 c 0,11,12
 507 486 507 486 434 540.5 c 128,-1,13
 361 595 361 595 239 595 c 2,14,-1
 157 595 l 1,15,-1
 157 73 l 1,16,-1
 239 73 l 2,17,9
 361 73 361 73 434 128 c 128,-1,10
EndSplineSet
EndChar
StartChar: J
Encoding: 74 74 48
Width: 632
GlyphClass: 2
Flags: W
AnchorPoint: "Anchor-1" 475 668 basechar 0
AnchorPoint: "Anchor-0" 319 0 basechar 0
LayerCount: 2
Fore
SplineSet
120.5 39.5 m 128,-1,1
 59 91 59 91 55 189 c 1,2,-1
 138 214 l 1,3,4
 137 136 137 136 179.5 98 c 128,-1,5
 222 60 222 60 288 60 c 0,6,7
 349 60 349 60 390 92.5 c 128,-1,8
 431 125 431 125 431 207 c 2,9,-1
 431 668 l 1,10,-1
 519 668 l 1,11,-1
 519 206 l 2,12,13
 519 101 519 101 457.5 44.5 c 128,-1,14
 396 -12 396 -12 287 -12 c 0,15,0
 182 -12 182 -12 120.5 39.5 c 128,-1,1
EndSplineSet
Substitution2: "Single Substitution lookup 13 subtable" uni004A0301
AlternateSubs2: "'aalt' Access All Alternates in Latin lookup 0 subtable" uni004A0301
EndChar
StartChar: K
Encoding: 75 75 50
Width: 632
GlyphClass: 2
Flags: W
AnchorPoint: "Anchor-1" 311 668 basechar 0
AnchorPoint: "Anchor-0" 307 0 basechar 0
LayerCount: 2
Fore
SplineSet
86 668 m 1,0,-1
 170 668 l 1,1,-1
 170 322 l 1,2,-1
 474 668 l 1,3,-1
 576 668 l 1,4,-1
 327 389 l 1,5,-1
 605 0 l 1,6,-1
 504 0 l 1,7,-1
 272 325 l 1,8,-1
 170 212 l 1,9,-1
 170 0 l 1,10,-1
 86 0 l 1,11,-1
 86 668 l 1,0,-1
EndSplineSet
EndChar
StartChar: L
Encoding: 76 76 52
Width: 632
GlyphClass: 2
Flags: W
AnchorPoint: "Anchor-3" 290 459 basechar 0
AnchorPoint: "Anchor-1" 323 668 basechar 0
AnchorPoint: "Anchor-0" 338 0 basechar 0
LayerCount: 2
Fore
SplineSet
134 668 m 1,0,-1
 222 668 l 1,1,-1
 222 77 l 1,2,-1
 583 77 l 1,3,-1
 583 0 l 1,4,-1
 134 0 l 1,5,-1
 134 668 l 1,0,-1
EndSplineSet
EndChar
StartChar: N
Encoding: 78 78 57
Width: 632
GlyphClass: 2
Flags: W
AnchorPoint: "Anchor-1" 316 668 basechar 0
AnchorPoint: "Anchor-0" 301 0 basechar 0
LayerCount: 2
Fore
SplineSet
75 668 m 1,0,-1
 191 668 l 1,1,-1
 472 105 l 1,2,-1
 476 105 l 1,3,-1
 476 668 l 1,4,-1
 557 668 l 1,5,-1
 557 0 l 1,6,-1
 441 0 l 1,7,-1
 160 563 l 1,8,-1
 156 563 l 1,9,-1
 156 0 l 1,10,-1
 75 0 l 1,11,-1
 75 668 l 1,0,-1
EndSplineSet
EndChar
StartChar: O
Encoding: 79 79 62
Width: 632
GlyphClass: 2
Flags: W
AnchorPoint: "Anchor-3" 626 668 basechar 0
AnchorPoint: "Anchor-2" 578 10 basechar 0
AnchorPoint: "Anchor-1" 317 668 basechar 0
AnchorPoint: "Anchor-0" 317 0 basechar 0
LayerCount: 2
Fore
SplineSet
168.5 31.5 m 128,-1,1
 106 75 106 75 73 153.5 c 128,-1,2
 40 232 40 232 40 334 c 256,3,4
 40 436 40 436 73 514.5 c 128,-1,5
 106 593 106 593 168.5 636.5 c 128,-1,6
 231 680 231 680 316 680 c 256,7,8
 401 680 401 680 463.5 636.5 c 128,-1,9
 526 593 526 593 559 514.5 c 128,-1,10
 592 436 592 436 592 334 c 256,11,12
 592 232 592 232 559 153.5 c 128,-1,13
 526 75 526 75 463.5 31.5 c 128,-1,14
 401 -12 401 -12 316 -12 c 256,15,0
 231 -12 231 -12 168.5 31.5 c 128,-1,1
414 92.5 m 128,-1,17
 457 124 457 124 481 185.5 c 128,-1,18
 505 247 505 247 505 334 c 256,19,20
 505 421 505 421 481 482.5 c 128,-1,21
 457 544 457 544 414 575.5 c 128,-1,22
 371 607 371 607 316 607 c 256,23,24
 261 607 261 607 218 575.5 c 128,-1,25
 175 544 175 544 151 482.5 c 128,-1,26
 127 421 127 421 127 334 c 256,27,28
 127 247 127 247 151 185.5 c 128,-1,29
 175 124 175 124 218 92.5 c 128,-1,30
 261 61 261 61 316 61 c 256,31,16
 371 61 371 61 414 92.5 c 128,-1,17
EndSplineSet
Substitution2: "Single Substitution lookup 14 subtable" ordmasculine
AlternateSubs2: "'aalt' Access All Alternates in Latin lookup 0 subtable" ordmasculine
EndChar
StartChar: P
Encoding: 80 80 71
Width: 632
GlyphClass: 2
Flags: W
AnchorPoint: "Anchor-1" 320 668 basechar 0
AnchorPoint: "Anchor-0" 320 0 basechar 0
LayerCount: 2
Fore
SplineSet
104 668 m 1,0,-1
 337 668 l 2,1,2
 447 668 447 668 512 617.5 c 128,-1,3
 577 567 577 567 577 468 c 256,4,5
 577 369 577 369 512 318.5 c 128,-1,6
 447 268 447 268 337 268 c 2,7,-1
 188 268 l 1,8,-1
 188 0 l 1,9,-1
 104 0 l 1,10,-1
 104 668 l 1,0,-1
491 468 m 256,12,13
 491 596 491 596 331 596 c 2,14,-1
 188 596 l 1,15,-1
 188 340 l 1,16,-1
 331 340 l 2,17,11
 491 340 491 340 491 468 c 256,12,13
EndSplineSet
EndChar
StartChar: Q
Encoding: 81 81 73
Width: 632
GlyphClass: 1
Flags: W
LayerCount: 2
Fore
SplineSet
168.5 31.5 m 128,-1,1
 106 75 106 75 73 153.5 c 128,-1,2
 40 232 40 232 40 334 c 256,3,4
 40 436 40 436 73 514.5 c 128,-1,5
 106 593 106 593 168.5 636.5 c 128,-1,6
 231 680 231 680 316 680 c 256,7,8
 401 680 401 680 463.5 636.5 c 128,-1,9
 526 593 526 593 559 514.5 c 128,-1,10
 592 436 592 436 592 334 c 0,11,12
 592 211 592 211 544 123 c 1,13,-1
 632 40 l 1,14,-1
 582 -13 l 1,15,-1
 500 64 l 1,16,17
 466 27 466 27 419 7.5 c 128,-1,18
 372 -12 372 -12 316 -12 c 0,19,0
 231 -12 231 -12 168.5 31.5 c 128,-1,1
442 118 m 1,21,-1
 288 264 l 1,22,-1
 338 317 l 1,23,-1
 477 186 l 1,24,25
 505 247 505 247 505 334 c 256,26,27
 505 421 505 421 481 482.5 c 128,-1,28
 457 544 457 544 414 575.5 c 128,-1,29
 371 607 371 607 316 607 c 256,30,31
 261 607 261 607 218 575.5 c 128,-1,32
 175 544 175 544 151 482.5 c 128,-1,33
 127 421 127 421 127 334 c 256,34,35
 127 247 127 247 151 185.5 c 128,-1,36
 175 124 175 124 218 92.5 c 128,-1,37
 261 61 261 61 316 61 c 0,38,20
 393 61 393 61 442 118 c 1,21,-1
EndSplineSet
EndChar
StartChar: T
Encoding: 84 84 83
Width: 632
GlyphClass: 2
Flags: W
AnchorPoint: "Anchor-1" 316 668 basechar 0
AnchorPoint: "Anchor-0" 316 0 basechar 0
LayerCount: 2
Fore
SplineSet
272 591 m 1,0,-1
 59 591 l 1,1,-1
 59 668 l 1,2,-1
 573 668 l 1,3,-1
 573 591 l 1,4,-1
 360 591 l 1,5,-1
 360 0 l 1,6,-1
 272 0 l 1,7,-1
 272 591 l 1,0,-1
EndSplineSet
EndChar
StartChar: U
Encoding: 85 85 87
Width: 632
GlyphClass: 2
Flags: W
AnchorPoint: "Anchor-3" 640 668 basechar 0
AnchorPoint: "Anchor-1" 316 668 basechar 0
LayerCount: 2
Fore
SplineSet
132.5 52.5 m 128,-1,1
 75 117 75 117 75 250 c 2,2,-1
 75 668 l 1,3,-1
 164 668 l 1,4,-1
 164 241 l 2,5,6
 164 151 164 151 200 106 c 128,-1,7
 236 61 236 61 316 61 c 256,8,9
 396 61 396 61 432 106 c 128,-1,10
 468 151 468 151 468 241 c 2,11,-1
 468 668 l 1,12,-1
 557 668 l 1,13,-1
 557 250 l 2,14,15
 557 117 557 117 499 52.5 c 128,-1,16
 441 -12 441 -12 316 -12 c 0,17,0
 190 -12 190 -12 132.5 52.5 c 128,-1,1
EndSplineSet
EndChar
StartChar: X
Encoding: 88 88 102
Width: 632
GlyphClass: 2
Flags: W
AnchorPoint: "Anchor-1" 316 668 basechar 0
AnchorPoint: "Anchor-0" 316 0 basechar 0
LayerCount: 2
Fore
SplineSet
266 344 m 1,0,-1
 43 668 l 1,1,-1
 140 668 l 1,2,-1
 313 415 l 1,3,-1
 317 415 l 1,4,-1
 490 668 l 1,5,-1
 589 668 l 1,6,-1
 367 344 l 1,7,-1
 602 0 l 1,8,-1
 505 0 l 1,9,-1
 318 273 l 1,10,-1
 314 273 l 1,11,-1
 128 0 l 1,12,-1
 30 0 l 1,13,-1
 266 344 l 1,0,-1
EndSplineSet
EndChar
StartChar: Y
Encoding: 89 89 103
Width: 632
GlyphClass: 2
Flags: W
AnchorPoint: "Anchor-1" 316 668 basechar 0
AnchorPoint: "Anchor-0" 317 0 basechar 0
LayerCount: 2
Fore
SplineSet
275 266 m 1,0,-1
 28 668 l 1,1,-1
 126 668 l 1,2,-1
 315 354 l 1,3,-1
 319 354 l 1,4,-1
 507 668 l 1,5,-1
 604 668 l 1,6,-1
 359 266 l 1,7,-1
 359 0 l 1,8,-1
 275 0 l 1,9,-1
 275 266 l 1,0,-1
EndSplineSet
EndChar
StartChar: a
Encoding: 97 97 112
Width: 632
GlyphClass: 2
Flags: W
AnchorPoint: "Anchor-2" 529 10 basechar 0
AnchorPoint: "Anchor-1" 312 496 basechar 0
AnchorPoint: "Anchor-0" 312 0 basechar 0
LayerCount: 2
Fore
SplineSet
127.5 24.5 m 128,-1,1
 79 61 79 61 79 125 c 0,2,3
 79 213 79 213 164 255.5 c 128,-1,4
 249 298 249 298 429 310 c 1,5,-1
 429 321 l 2,6,7
 429 444 429 444 309 444 c 0,8,9
 260 444 260 444 228.5 422 c 128,-1,10
 197 400 197 400 188 365 c 1,11,-1
 109 388 l 1,12,13
 130 444 130 444 183.5 475.5 c 128,-1,14
 237 507 237 507 311 507 c 0,15,16
 511 507 511 507 511 313 c 2,17,-1
 511 191 l 2,18,19
 511 76 511 76 529 0 c 1,20,-1
 455 0 l 1,21,-1
 436 75 l 1,22,23
 415 35 415 35 370 11.5 c 128,-1,24
 325 -12 325 -12 255 -12 c 0,25,0
 176 -12 176 -12 127.5 24.5 c 128,-1,1
387.5 86.5 m 128,-1,27
 429 121 429 121 429 198 c 2,28,-1
 429 251 l 1,29,30
 294 242 294 242 230 214 c 128,-1,31
 166 186 166 186 166 131 c 0,32,33
 166 95 166 95 195 73.5 c 128,-1,34
 224 52 224 52 275 52 c 0,35,26
 346 52 346 52 387.5 86.5 c 128,-1,27
EndSplineSet
Substitution2: "Single Substitution lookup 14 subtable" ordfeminine
AlternateSubs2: "'aalt' Access All Alternates in Latin lookup 0 subtable" ordfeminine
EndChar
StartChar: b
Encoding: 98 98 123
Width: 632
GlyphClass: 2
Flags: W
AnchorPoint: "Anchor-1" 307 496 basechar 0
AnchorPoint: "Anchor-0" 307 0 basechar 0
LayerCount: 2
Fore
SplineSet
245.5 13.5 m 128,-1,1
 199 39 199 39 173 80 c 1,2,-1
 159 0 l 1,3,-1
 89 0 l 1,4,-1
 89 708 l 1,5,-1
 174 708 l 1,6,-1
 174 412 l 1,7,8
 200 456 200 456 246.5 481.5 c 128,-1,9
 293 507 293 507 349 507 c 0,10,11
 417 507 417 507 469 476.5 c 128,-1,12
 521 446 521 446 550 387.5 c 128,-1,13
 579 329 579 329 579 249 c 0,14,15
 579 168 579 168 550 109 c 128,-1,16
 521 50 521 50 469 19 c 128,-1,17
 417 -12 417 -12 349 -12 c 0,18,0
 292 -12 292 -12 245.5 13.5 c 128,-1,1
447.5 108.5 m 128,-1,20
 492 159 492 159 492 249 c 0,21,22
 492 338 492 338 448 387.5 c 128,-1,23
 404 437 404 437 330 437 c 0,24,25
 259 437 259 437 215.5 387 c 128,-1,26
 172 337 172 337 172 248 c 256,27,28
 172 159 172 159 215.5 108.5 c 128,-1,29
 259 58 259 58 330 58 c 0,30,19
 403 58 403 58 447.5 108.5 c 128,-1,20
EndSplineSet
EndChar
StartChar: c
Encoding: 99 99 124
Width: 632
GlyphClass: 2
Flags: W
AnchorPoint: "Anchor-1" 347 496 basechar 0
AnchorPoint: "Anchor-0" 343 0 basechar 0
LayerCount: 2
Fore
SplineSet
210 21 m 128,-1,1
 153 54 153 54 122.5 112.5 c 128,-1,2
 92 171 92 171 92 246 c 0,3,4
 92 320 92 320 123 379.5 c 128,-1,5
 154 439 154 439 211.5 473 c 128,-1,6
 269 507 269 507 346 507 c 0,7,8
 416 507 416 507 469.5 477 c 128,-1,9
 523 447 523 447 553 392 c 1,10,-1
 479 365 l 1,11,12
 462 399 462 399 427.5 418 c 128,-1,13
 393 437 393 437 347 437 c 0,14,15
 302 437 302 437 264 416.5 c 128,-1,16
 226 396 226 396 202.5 353 c 128,-1,17
 179 310 179 310 179 247 c 256,18,19
 179 184 179 184 202 141.5 c 128,-1,20
 225 99 225 99 262.5 78.5 c 128,-1,21
 300 58 300 58 345 58 c 0,22,23
 391 58 391 58 428 76 c 128,-1,24
 465 94 465 94 482 126 c 1,25,-1
 556 99 l 1,26,27
 529 51 529 51 473 19.5 c 128,-1,28
 417 -12 417 -12 342 -12 c 256,29,0
 267 -12 267 -12 210 21 c 128,-1,1
EndSplineSet
EndChar
StartChar: d
Encoding: 100 100 129
Width: 632
GlyphClass: 2
Flags: W
AnchorPoint: "Anchor-3" 570 497 basechar 0
AnchorPoint: "Anchor-1" 326 796 basechar 0
AnchorPoint: "Anchor-0" 326 0 basechar 0
LayerCount: 2
Fore
SplineSet
163 19.5 m 128,-1,1
 111 51 111 51 82 110 c 128,-1,2
 53 169 53 169 53 249 c 256,3,4
 53 329 53 329 82 387.5 c 128,-1,5
 111 446 111 446 163 476.5 c 128,-1,6
 215 507 215 507 283 507 c 0,7,8
 340 507 340 507 386 481.5 c 128,-1,9
 432 456 432 456 458 413 c 1,10,-1
 458 708 l 1,11,-1
 543 708 l 1,12,-1
 543 186 l 2,13,14
 543 87 543 87 560 0 c 1,15,-1
 480 0 l 1,16,-1
 458 78 l 1,17,18
 429 36 429 36 384 12 c 128,-1,19
 339 -12 339 -12 283 -12 c 0,20,0
 215 -12 215 -12 163 19.5 c 128,-1,1
416.5 108.5 m 128,-1,22
 460 159 460 159 460 248 c 0,23,24
 460 336 460 336 416.5 386.5 c 128,-1,25
 373 437 373 437 302 437 c 0,26,27
 228 437 228 437 184 387.5 c 128,-1,28
 140 338 140 338 140 249 c 0,29,30
 140 159 140 159 184.5 108.5 c 128,-1,31
 229 58 229 58 302 58 c 0,32,21
 373 58 373 58 416.5 108.5 c 128,-1,22
EndSplineSet
EndChar
StartChar: e
Encoding: 101 101 133
Width: 632
GlyphClass: 2
Flags: W
AnchorPoint: "Anchor-2" 484 10 basechar 0
AnchorPoint: "Anchor-1" 328 496 basechar 0
AnchorPoint: "Anchor-0" 315 0 basechar 0
LayerCount: 2
Fore
SplineSet
193 21 m 128,-1,1
 136 54 136 54 106 113 c 128,-1,2
 76 172 76 172 76 247 c 0,3,4
 76 325 76 325 108 384 c 128,-1,5
 140 443 140 443 196 475 c 128,-1,6
 252 507 252 507 322 507 c 0,7,8
 398 507 398 507 453.5 469 c 128,-1,9
 509 431 509 431 536 368.5 c 128,-1,10
 563 306 563 306 557 233 c 1,11,-1
 161 233 l 1,12,13
 164 141 164 141 214 99.5 c 128,-1,14
 264 58 264 58 330 58 c 0,15,16
 412 58 412 58 454 114 c 1,17,-1
 529 87 l 1,18,19
 462 -12 462 -12 326 -12 c 0,20,0
 250 -12 250 -12 193 21 c 128,-1,1
455.5 363.5 m 128,-1,22
 438 397 438 397 404.5 418 c 128,-1,23
 371 439 371 439 324 439 c 0,24,25
 261 439 261 439 217 403.5 c 128,-1,26
 173 368 173 368 162 292 c 1,27,-1
 474 292 l 1,28,21
 473 330 473 330 455.5 363.5 c 128,-1,22
EndSplineSet
EndChar
StartChar: h
Encoding: 104 104 147
Width: 632
GlyphClass: 2
Flags: W
AnchorPoint: "Anchor-1" 313 796 basechar 0
AnchorPoint: "Anchor-0" 313 0 basechar 0
LayerCount: 2
Fore
SplineSet
103 708 m 1,0,-1
 189 708 l 1,1,-1
 189 423 l 1,2,3
 210 456 210 456 253 481.5 c 128,-1,4
 296 507 296 507 355 507 c 0,5,6
 445 507 445 507 488.5 458.5 c 128,-1,7
 532 410 532 410 532 325 c 2,8,-1
 532 0 l 1,9,-1
 447 0 l 1,10,-1
 447 303 l 2,11,12
 447 437 447 437 331 437 c 0,13,14
 266 437 266 437 227.5 392.5 c 128,-1,15
 189 348 189 348 189 267 c 2,16,-1
 189 0 l 1,17,-1
 103 0 l 1,18,-1
 103 708 l 1,0,-1
EndSplineSet
EndChar
StartChar: k
Encoding: 107 107 161
Width: 632
GlyphClass: 2
Flags: W
AnchorPoint: "Anchor-1" 325 796 basechar 0
AnchorPoint: "Anchor-0" 328 0 basechar 0
LayerCount: 2
Fore
SplineSet
129 708 m 1,0,-1
 214 708 l 1,1,-1
 214 261 l 1,2,-1
 453 496 l 1,3,-1
 558 496 l 1,4,-1
 348 292 l 1,5,-1
 584 0 l 1,6,-1
 479 0 l 1,7,-1
 290 235 l 1,8,-1
 214 161 l 1,9,-1
 214 0 l 1,10,-1
 129 0 l 1,11,-1
 129 708 l 1,0,-1
EndSplineSet
EndChar
StartChar: l
Encoding: 108 108 163
Width: 632
GlyphClass: 2
Flags: W
AnchorPoint: "Anchor-3" 370 498 basechar 0
AnchorPoint: "Anchor-1" 275 796 basechar 0
AnchorPoint: "Anchor-0" 376 0 basechar 0
LayerCount: 2
Fore
SplineSet
270.5 9.5 m 128,-1,1
 245 19 245 19 234 42.5 c 128,-1,2
 223 66 223 66 223 109 c 2,3,-1
 223 641 l 1,4,-1
 108 641 l 1,5,-1
 108 708 l 1,6,-1
 309 708 l 1,7,-1
 309 125 l 2,8,9
 309 92 309 92 319 81.5 c 128,-1,10
 329 71 329 71 363 71 c 2,11,-1
 544 71 l 1,12,-1
 544 0 l 1,13,-1
 343 0 l 2,14,0
 296 0 296 0 270.5 9.5 c 128,-1,1
EndSplineSet
EndChar
StartChar: m
Encoding: 109 109 167
Width: 632
GlyphClass: 2
Flags: W
AnchorPoint: "Anchor-1" 314 496 basechar 0
AnchorPoint: "Anchor-0" 317 0 basechar 0
LayerCount: 2
Fore
SplineSet
63 496 m 1,0,-1
 124 496 l 1,1,-1
 134 444 l 1,2,3
 149 471 149 471 176.5 489 c 128,-1,4
 204 507 204 507 241 507 c 0,5,6
 318 507 318 507 344 443 c 1,7,8
 358 470 358 470 387 488.5 c 128,-1,9
 416 507 416 507 455 507 c 0,10,11
 514 507 514 507 542.5 471.5 c 128,-1,12
 571 436 571 436 571 375 c 2,13,-1
 571 0 l 1,14,-1
 495 0 l 1,15,-1
 495 349 l 2,16,17
 495 437 495 437 432 437 c 0,18,19
 397 437 397 437 376 409 c 128,-1,20
 355 381 355 381 355 329 c 2,21,-1
 355 0 l 1,22,-1
 279 0 l 1,23,-1
 279 350 l 2,24,25
 279 437 279 437 217 437 c 0,26,27
 182 437 182 437 160.5 408.5 c 128,-1,28
 139 380 139 380 139 328 c 2,29,-1
 139 0 l 1,30,-1
 63 0 l 1,31,-1
 63 496 l 1,0,-1
EndSplineSet
EndChar
StartChar: o
Encoding: 111 111 173
Width: 632
GlyphClass: 2
Flags: W
AnchorPoint: "Anchor-3" 590 496 basechar 0
AnchorPoint: "Anchor-2" 553 10 basechar 0
AnchorPoint: "Anchor-1" 316 496 basechar 0
AnchorPoint: "Anchor-0" 316 0 basechar 0
LayerCount: 2
Fore
SplineSet
193.5 16.5 m 128,-1,1
 136 45 136 45 100 103.5 c 128,-1,2
 64 162 64 162 64 248 c 256,3,4
 64 334 64 334 100 392.5 c 128,-1,5
 136 451 136 451 193.5 479 c 128,-1,6
 251 507 251 507 316 507 c 256,7,8
 381 507 381 507 438.5 479 c 128,-1,9
 496 451 496 451 532 392.5 c 128,-1,10
 568 334 568 334 568 248 c 256,11,12
 568 162 568 162 532 103.5 c 128,-1,13
 496 45 496 45 438.5 16.5 c 128,-1,14
 381 -12 381 -12 316 -12 c 256,15,0
 251 -12 251 -12 193.5 16.5 c 128,-1,1
398.5 79 m 128,-1,17
 436 100 436 100 458.5 143 c 128,-1,18
 481 186 481 186 481 248 c 256,19,20
 481 310 481 310 458.5 352.5 c 128,-1,21
 436 395 436 395 398.5 416 c 128,-1,22
 361 437 361 437 316 437 c 256,23,24
 271 437 271 437 233.5 416 c 128,-1,25
 196 395 196 395 173.5 352.5 c 128,-1,26
 151 310 151 310 151 248 c 256,27,28
 151 186 151 186 173.5 143 c 128,-1,29
 196 100 196 100 233.5 79 c 128,-1,30
 271 58 271 58 316 58 c 256,31,16
 361 58 361 58 398.5 79 c 128,-1,17
EndSplineSet
Substitution2: "Single Substitution lookup 14 subtable" ordmasculine
AlternateSubs2: "'aalt' Access All Alternates in Latin lookup 0 subtable" ordmasculine
EndChar
StartChar: q
Encoding: 113 113 184
Width: 632
GlyphClass: 2
Flags: W
AnchorPoint: "Anchor-1" 329 496 basechar 0
AnchorPoint: "Anchor-0" 329 0 basechar 0
LayerCount: 2
Fore
SplineSet
480.5 -144.5 m 128,-1,1
 450 -115 450 -115 450 -42 c 2,2,-1
 450 81 l 1,3,4
 423 38 423 38 378.5 13 c 128,-1,5
 334 -12 334 -12 277 -12 c 0,6,7
 211 -12 211 -12 160 19 c 128,-1,8
 109 50 109 50 81 108.5 c 128,-1,9
 53 167 53 167 53 247 c 256,10,11
 53 327 53 327 81.5 386 c 128,-1,12
 110 445 110 445 160.5 476 c 128,-1,13
 211 507 211 507 278 507 c 0,14,15
 334 507 334 507 379 481.5 c 128,-1,16
 424 456 424 456 450 413 c 1,17,-1
 465 496 l 1,18,-1
 535 496 l 1,19,-1
 535 -27 l 2,20,21
 535 -64 535 -64 546 -81.5 c 128,-1,22
 557 -99 557 -99 584 -99 c 0,23,24
 609 -99 609 -99 632 -86 c 1,25,-1
 632 -159 l 1,26,27
 600 -174 600 -174 564 -174 c 0,28,0
 511 -174 511 -174 480.5 -144.5 c 128,-1,1
410 108.5 m 128,-1,30
 452 159 452 159 452 248 c 256,31,32
 452 337 452 337 409.5 387 c 128,-1,33
 367 437 367 437 298 437 c 0,34,35
 227 437 227 437 183.5 387.5 c 128,-1,36
 140 338 140 338 140 248 c 256,37,38
 140 158 140 158 183.5 108 c 128,-1,39
 227 58 227 58 298 58 c 0,40,29
 368 58 368 58 410 108.5 c 128,-1,30
EndSplineSet
EndChar
StartChar: s
Encoding: 115 115 188
Width: 632
GlyphClass: 2
Flags: W
AnchorPoint: "Anchor-1" 316 496 basechar 0
AnchorPoint: "Anchor-0" 324 0 basechar 0
LayerCount: 2
Fore
SplineSet
183 20 m 128,-1,1
 121 52 121 52 98 113 c 1,2,-1
 175 141 l 1,3,4
 187 101 187 101 226.5 78 c 128,-1,5
 266 55 266 55 324 55 c 0,6,7
 384 55 384 55 418.5 77 c 128,-1,8
 453 99 453 99 453 135 c 0,9,10
 453 169 453 169 426 186.5 c 128,-1,11
 399 204 399 204 343 216 c 2,12,-1
 261 233 l 2,13,14
 190 246 190 246 152 277.5 c 128,-1,15
 114 309 114 309 114 364 c 0,16,17
 114 430 114 430 171.5 468.5 c 128,-1,18
 229 507 229 507 316 507 c 0,19,20
 389 507 389 507 442 480.5 c 128,-1,21
 495 454 495 454 517 403 c 1,22,-1
 442 375 l 1,23,24
 430 407 430 407 396 423.5 c 128,-1,25
 362 440 362 440 314 440 c 0,26,27
 260 440 260 440 227.5 421.5 c 128,-1,28
 195 403 195 403 195 369 c 0,29,30
 195 319 195 319 284 301 c 2,31,-1
 368 284 l 2,32,33
 455 267 455 267 494.5 235 c 128,-1,34
 534 203 534 203 534 141 c 0,35,36
 534 69 534 69 475 28.5 c 128,-1,37
 416 -12 416 -12 323 -12 c 0,38,0
 245 -12 245 -12 183 20 c 128,-1,1
EndSplineSet
EndChar
StartChar: t
Encoding: 116 116 194
Width: 632
GlyphClass: 2
Flags: W
AnchorPoint: "Anchor-3" 340 545 basechar 0
AnchorPoint: "Anchor-1" 286 496 basechar 0
AnchorPoint: "Anchor-0" 332 0 basechar 0
LayerCount: 2
Fore
SplineSet
274 10 m 128,-1,1
 248 20 248 20 236.5 46 c 128,-1,2
 225 72 225 72 225 124 c 2,3,-1
 225 429 l 1,4,-1
 118 429 l 1,5,-1
 118 496 l 1,6,-1
 225 496 l 1,7,-1
 225 620 l 1,8,-1
 310 620 l 1,9,-1
 310 496 l 1,10,-1
 521 496 l 1,11,-1
 521 429 l 1,12,-1
 310 429 l 1,13,-1
 310 136 l 2,14,15
 310 108 310 108 314.5 94.5 c 128,-1,16
 319 81 319 81 331 76 c 128,-1,17
 343 71 343 71 368 71 c 2,18,-1
 471 71 l 1,19,-1
 471 0 l 1,20,-1
 349 0 l 2,21,0
 300 0 300 0 274 10 c 128,-1,1
EndSplineSet
EndChar
StartChar: u
Encoding: 117 117 198
Width: 632
GlyphClass: 2
Flags: W
AnchorPoint: "Anchor-3" 561 496 basechar 0
AnchorPoint: "Anchor-2" 523 10 basechar 0
AnchorPoint: "Anchor-1" 314 496 basechar 0
AnchorPoint: "Anchor-0" 306 0 basechar 0
LayerCount: 2
Fore
SplineSet
105 178 m 2,1,-1
 105 496 l 1,2,-1
 191 496 l 1,3,-1
 191 202 l 2,4,5
 191 132 191 132 215.5 95 c 128,-1,6
 240 58 240 58 302 58 c 0,7,8
 365 58 365 58 401.5 101 c 128,-1,9
 438 144 438 144 438 225 c 2,10,-1
 438 496 l 1,11,-1
 523 496 l 1,12,-1
 523 0 l 1,13,-1
 454 0 l 1,14,-1
 440 77 l 1,15,16
 419 38 419 38 379.5 13 c 128,-1,17
 340 -12 340 -12 280 -12 c 0,18,0
 105 -12 105 -12 105 178 c 2,1,-1
EndSplineSet
EndChar
StartChar: braceleft
Encoding: 123 123 270
Width: 632
GlyphClass: 1
Flags: W
LayerCount: 2
Fore
SplineSet
275.5 -150.5 m 128,-1,1
 249 -139 249 -139 239 -114.5 c 128,-1,2
 229 -90 229 -90 229 -48 c 2,3,-1
 229 145 l 2,4,5
 229 181 229 181 221.5 200.5 c 128,-1,6
 214 220 214 220 194 228.5 c 128,-1,7
 174 237 174 237 136 239 c 1,8,-1
 136 307 l 1,9,10
 174 309 174 309 194 317.5 c 128,-1,11
 214 326 214 326 221.5 345.5 c 128,-1,12
 229 365 229 365 229 401 c 2,13,-1
 229 594 l 2,14,15
 229 636 229 636 239 660.5 c 128,-1,16
 249 685 249 685 275.5 696.5 c 128,-1,17
 302 708 302 708 352 708 c 2,18,-1
 478 708 l 1,19,-1
 478 641 l 1,20,-1
 358 641 l 2,21,22
 331 641 331 641 321 632 c 128,-1,23
 311 623 311 623 311 600 c 2,24,-1
 311 405 l 2,25,26
 311 345 311 345 293.5 316.5 c 128,-1,27
 276 288 276 288 236 276 c 1,28,-1
 236 270 l 1,29,30
 276 258 276 258 293.5 229.5 c 128,-1,31
 311 201 311 201 311 141 c 2,32,-1
 311 -54 l 2,33,34
 311 -77 311 -77 321 -86 c 128,-1,35
 331 -95 331 -95 358 -95 c 2,36,-1
 478 -95 l 1,37,-1
 478 -162 l 1,38,-1
 352 -162 l 2,39,0
 302 -162 302 -162 275.5 -150.5 c 128,-1,1
EndSplineSet
EndChar
StartChar: asciitilde
Encoding: 126 126 324
Width: 632
GlyphClass: 1
Flags: W
LayerCount: 2
Fore
SplineSet
203 328 m 0,1,2
 231 328 231 328 257.5 319.5 c 128,-1,3
 284 311 284 311 326 293 c 0,4,5
 360 278 360 278 382 271 c 128,-1,6
 404 264 404 264 424 264 c 0,7,8
 483 264 483 264 486 339 c 1,9,-1
 552 321 l 1,10,11
 539 191 539 191 427 191 c 0,12,13
 400 191 400 191 373.5 199.5 c 128,-1,14
 347 208 347 208 305 226 c 0,15,16
 271 241 271 241 249 248 c 128,-1,17
 227 255 227 255 207 255 c 0,18,19
 148 255 148 255 145 179 c 1,20,-1
 79 198 l 1,21,0
 92 328 92 328 203 328 c 0,1,2
EndSplineSet
EndChar
StartChar: cent
Encoding: 162 162 302
Width: 632
GlyphClass: 1
Flags: W
LayerCount: 2
Fore
SplineSet
201.5 33 m 128,-1,1
 157 69 157 69 134 125 c 128,-1,2
 111 181 111 181 111 247 c 0,3,4
 111 312 111 312 135.5 367.5 c 128,-1,5
 160 423 160 423 205 458.5 c 128,-1,6
 250 494 250 494 308 502 c 1,7,-1
 308 586 l 1,8,-1
 357 586 l 1,9,-1
 357 503 l 1,10,11
 422 500 422 500 466.5 469 c 128,-1,12
 511 438 511 438 535 393 c 1,13,-1
 461 366 l 1,14,15
 425 425 425 425 357 432 c 1,16,-1
 357 61 l 1,17,18
 394 64 394 64 420.5 82 c 128,-1,19
 447 100 447 100 463 126 c 1,20,-1
 537 99 l 1,21,22
 513 55 513 55 466 24 c 128,-1,23
 419 -7 419 -7 357 -11 c 1,24,-1
 357 -90 l 1,25,-1
 308 -90 l 1,26,-1
 308 -10 l 1,27,0
 246 -3 246 -3 201.5 33 c 128,-1,1
230 367 m 128,-1,29
 199 319 199 319 199 248 c 256,30,31
 199 177 199 177 228.5 127 c 128,-1,32
 258 77 258 77 308 64 c 1,33,-1
 308 428 l 1,34,28
 261 415 261 415 230 367 c 128,-1,29
EndSplineSet
EndChar
StartChar: sterling
Encoding: 163 163 307
Width: 632
GlyphClass: 1
Flags: W
LayerCount: 2
Fore
SplineSet
179 122 m 128,-1,1
 219 166 219 166 219 225 c 0,2,3
 219 265 219 265 199 319 c 1,4,-1
 88 319 l 1,5,-1
 88 369 l 1,6,-1
 174 369 l 1,7,8
 152 414 152 414 141.5 446.5 c 128,-1,9
 131 479 131 479 131 511 c 0,10,11
 131 591 131 591 189 635.5 c 128,-1,12
 247 680 247 680 343 680 c 0,13,14
 426 680 426 680 484 642.5 c 128,-1,15
 542 605 542 605 561 541 c 1,16,-1
 477 517 l 1,17,18
 452 609 452 609 346 609 c 0,19,20
 294 609 294 609 256 585.5 c 128,-1,21
 218 562 218 562 218 509 c 0,22,23
 218 483 218 483 227 457.5 c 128,-1,24
 236 432 236 432 256 388 c 2,25,-1
 265 369 l 1,26,-1
 463 369 l 1,27,-1
 463 319 l 1,28,-1
 288 319 l 1,29,30
 305 273 305 273 305 233 c 0,31,32
 305 137 305 137 219 83 c 1,33,34
 240 93 240 93 272 93 c 0,35,36
 290 93 290 93 311.5 88.5 c 128,-1,37
 333 84 333 84 353 78 c 0,38,39
 382 69 382 69 404.5 64.5 c 128,-1,40
 427 60 427 60 450 60 c 0,41,42
 472 60 472 60 492.5 65.5 c 128,-1,43
 513 71 513 71 547 85 c 1,44,-1
 571 18 l 1,45,46
 534 1 534 1 505 -5.5 c 128,-1,47
 476 -12 476 -12 447 -12 c 0,48,49
 422 -12 422 -12 402 -7.5 c 128,-1,50
 382 -3 382 -3 347 7 c 0,51,52
 318 16 318 16 295.5 21 c 128,-1,53
 273 26 273 26 249 26 c 0,54,55
 219 26 219 26 188.5 17.5 c 128,-1,56
 158 9 158 9 119 -11 c 1,57,-1
 90 53 l 1,58,0
 139 78 139 78 179 122 c 128,-1,1
EndSplineSet
EndChar
StartChar: yen
Encoding: 165 165 308
Width: 632
GlyphClass: 1
Flags: W
LayerCount: 2
Fore
SplineSet
272 87 m 1,0,-1
 120 87 l 1,1,-1
 120 137 l 1,2,-1
 272 137 l 1,3,-1
 272 224 l 1,4,-1
 120 224 l 1,5,-1
 120 274 l 1,6,-1
 262 274 l 1,7,-1
 39 668 l 1,8,-1
 140 668 l 1,9,-1
 316 344 l 1,10,-1
 320 344 l 1,11,-1
 495 668 l 1,12,-1
 593 668 l 1,13,-1
 371 274 l 1,14,-1
 512 274 l 1,15,-1
 512 224 l 1,16,-1
 362 224 l 1,17,-1
 362 137 l 1,18,-1
 512 137 l 1,19,-1
 512 87 l 1,20,-1
 362 87 l 1,21,-1
 362 0 l 1,22,-1
 272 0 l 1,23,-1
 272 87 l 1,0,-1
EndSplineSet
EndChar
StartChar: brokenbar
Encoding: 166 166 297
Width: 632
GlyphClass: 1
Flags: W
LayerCount: 2
Fore
SplineSet
277 233 m 1,0,-1
 355 233 l 1,1,-1
 355 -162 l 1,2,-1
 277 -162 l 1,3,-1
 277 233 l 1,0,-1
277 838 m 1,4,-1
 355 838 l 1,5,-1
 355 443 l 1,6,-1
 277 443 l 1,7,-1
 277 838 l 1,4,-1
EndSplineSet
EndChar
StartChar: section
Encoding: 167 167 291
Width: 632
GlyphClass: 1
Flags: W
LayerCount: 2
Fore
SplineSet
187 -139 m 128,-1,1
 136 -105 136 -105 118 -44 c 1,2,-1
 199 -21 l 1,3,4
 209 -62 209 -62 237 -83.5 c 128,-1,5
 265 -105 265 -105 314 -105 c 0,6,7
 360 -105 360 -105 389 -83.5 c 128,-1,8
 418 -62 418 -62 418 -31 c 0,9,10
 418 -6 418 -6 397.5 14 c 128,-1,11
 377 34 377 34 316 65 c 2,12,-1
 217 117 l 2,13,14
 144 156 144 156 113 192.5 c 128,-1,15
 82 229 82 229 82 282 c 0,16,17
 82 368 82 368 201 423 c 1,18,19
 164 451 164 451 149 476.5 c 128,-1,20
 134 502 134 502 134 534 c 0,21,22
 134 577 134 577 159.5 610 c 128,-1,23
 185 643 185 643 227.5 661.5 c 128,-1,24
 270 680 270 680 321 680 c 0,25,26
 394 680 394 680 445 646 c 128,-1,27
 496 612 496 612 514 551 c 1,28,-1
 433 529 l 1,29,30
 412 612 412 612 318 612 c 0,31,32
 272 612 272 612 243.5 590.5 c 128,-1,33
 215 569 215 569 215 538 c 0,34,35
 215 513 215 513 235.5 493 c 128,-1,36
 256 473 256 473 316 442 c 2,37,-1
 415 390 l 2,38,39
 488 351 488 351 519 314.5 c 128,-1,40
 550 278 550 278 550 225 c 0,41,42
 550 139 550 139 431 84 c 1,43,44
 468 56 468 56 483 30.5 c 128,-1,45
 498 5 498 5 498 -27 c 0,46,47
 498 -70 498 -70 472.5 -103 c 128,-1,48
 447 -136 447 -136 404.5 -154.5 c 128,-1,49
 362 -173 362 -173 311 -173 c 0,50,0
 238 -173 238 -173 187 -139 c 128,-1,1
470 219 m 0,52,53
 470 250 470 250 447.5 272 c 128,-1,54
 425 294 425 294 373 323 c 2,55,-1
 258 383 l 1,56,57
 162 342 162 342 162 288 c 0,58,59
 162 257 162 257 184.5 235 c 128,-1,60
 207 213 207 213 259 184 c 2,61,-1
 374 124 l 1,62,51
 470 165 470 165 470 219 c 0,52,53
EndSplineSet
EndChar
StartChar: uni00B2
Encoding: 178 178 245
Width: 632
GlyphClass: 1
Flags: W
LayerCount: 2
Fore
SplineSet
337 568.5 m 128,-1,1
 386 624 386 624 386 673 c 0,2,3
 386 702 386 702 367.5 718.5 c 128,-1,4
 349 735 349 735 318 735 c 0,5,6
 291 735 291 735 270 719 c 128,-1,7
 249 703 249 703 245 668 c 1,8,-1
 181 684 l 1,9,10
 191 731 191 731 227.5 758.5 c 128,-1,11
 264 786 264 786 321 786 c 0,12,13
 381 786 381 786 418 756 c 128,-1,14
 455 726 455 726 455 675 c 0,15,16
 455 617 455 617 405.5 556.5 c 128,-1,17
 356 496 356 496 255 421 c 1,18,-1
 465 421 l 1,19,-1
 465 364 l 1,20,-1
 168 364 l 1,21,-1
 168 418 l 1,22,0
 288 513 288 513 337 568.5 c 128,-1,1
EndSplineSet
EndChar
StartChar: paragraph
Encoding: 182 182 290
Width: 632
GlyphClass: 1
Flags: W
LayerCount: 2
Fore
SplineSet
138 357.5 m 128,-1,1
 91 408 91 408 91 479 c 0,2,3
 91 531 91 531 118 574.5 c 128,-1,4
 145 618 145 618 195 643 c 128,-1,5
 245 668 245 668 310 668 c 2,6,-1
 549 668 l 1,7,-1
 549 615 l 1,8,-1
 510 615 l 1,9,-1
 510 -162 l 1,10,-1
 444 -162 l 1,11,-1
 444 615 l 1,12,-1
 336 615 l 1,13,-1
 336 -162 l 1,14,-1
 270 -162 l 1,15,-1
 270 293 l 1,16,0
 185 307 185 307 138 357.5 c 128,-1,1
EndSplineSet
EndChar
StartChar: uni00B9
Encoding: 185 185 244
Width: 632
GlyphClass: 1
Flags: W
LayerCount: 2
Fore
SplineSet
340 683 m 1,0,-1
 250 683 l 1,1,-1
 250 724 l 1,2,3
 287 724 287 724 314 737.5 c 128,-1,4
 341 751 341 751 351 779 c 1,5,-1
 405 779 l 1,6,-1
 405 364 l 1,7,-1
 340 364 l 1,8,-1
 340 683 l 1,0,-1
EndSplineSet
EndChar
StartChar: guillemotright
Encoding: 187 187 281
Width: 632
GlyphClass: 1
Flags: W
LayerCount: 2
Fore
SplineSet
446 250 m 1,0,-1
 298 460 l 1,1,-1
 394 460 l 1,2,-1
 542 250 l 1,3,-1
 394 40 l 1,4,-1
 298 40 l 1,5,-1
 446 250 l 1,0,-1
238 250 m 1,6,-1
 90 460 l 1,7,-1
 186 460 l 1,8,-1
 334 250 l 1,9,-1
 186 40 l 1,10,-1
 90 40 l 1,11,-1
 238 250 l 1,6,-1
EndSplineSet
EndChar
StartChar: onequarter
Encoding: 188 188 242
Width: 632
GlyphClass: 3
Flags: W
LayerCount: 2
Fore
SplineSet
143 580 m 1,0,-1
 75 580 l 1,1,-1
 75 629 l 1,2,3
 109 628 109 628 128.5 637 c 128,-1,4
 148 646 148 646 155 668 c 1,5,-1
 207 668 l 1,6,-1
 207 363 l 1,7,-1
 143 363 l 1,8,-1
 143 580 l 1,0,-1
462 668 m 1,9,-1
 533 668 l 1,10,-1
 168 0 l 1,11,-1
 97 0 l 1,12,-1
 462 668 l 1,9,-1
478 63 m 1,13,-1
 323 63 l 1,14,-1
 323 116 l 1,15,-1
 475 306 l 1,16,-1
 539 306 l 1,17,-1
 539 118 l 1,18,-1
 587 118 l 1,19,-1
 587 63 l 1,20,-1
 539 63 l 1,21,-1
 539 0 l 1,22,-1
 478 0 l 1,23,-1
 478 63 l 1,13,-1
479 118 m 1,24,-1
 479 227 l 1,25,-1
 477 227 l 1,26,-1
 390 118 l 1,27,-1
 479 118 l 1,24,-1
EndSplineSet
Ligature2: "'frac' Diagonal Fractions in Latin lookup 7 subtable" one slash four
EndChar
StartChar: questiondown
Encoding: 191 191 257
Width: 632
GlyphClass: 1
Flags: W
LayerCount: 2
Fore
SplineSet
203.5 -163 m 128,-1,1
 156 -144 156 -144 126.5 -106 c 128,-1,2
 97 -68 97 -68 97 -15 c 0,3,4
 97 42 97 42 127 82 c 128,-1,5
 157 122 157 122 225 171 c 0,6,7
 258 194 258 194 273.5 209 c 128,-1,8
 289 224 289 224 293.5 238.5 c 128,-1,9
 298 253 298 253 298 278 c 2,10,-1
 298 314 l 1,11,-1
 383 314 l 1,12,-1
 383 281 l 2,13,14
 383 221 383 221 361 186 c 128,-1,15
 339 151 339 151 279 113 c 0,16,17
 231 83 231 83 207.5 52.5 c 128,-1,18
 184 22 184 22 184 -14 c 0,19,20
 184 -58 184 -58 218 -84.5 c 128,-1,21
 252 -111 252 -111 307 -111 c 0,22,23
 366 -111 366 -111 401 -78.5 c 128,-1,24
 436 -46 436 -46 444 -3 c 1,25,-1
 524 -25 l 1,26,27
 510 -97 510 -97 450 -139.5 c 128,-1,28
 390 -182 390 -182 305 -182 c 0,29,0
 251 -182 251 -182 203.5 -163 c 128,-1,1
295 402.5 m 128,-1,31
 277 421 277 421 277 447 c 256,32,33
 277 473 277 473 295 491.5 c 128,-1,34
 313 510 313 510 339 510 c 0,35,36
 366 510 366 510 384.5 491.5 c 128,-1,37
 403 473 403 473 403 447 c 256,38,39
 403 421 403 421 384.5 402.5 c 128,-1,40
 366 384 366 384 339 384 c 0,41,30
 313 384 313 384 295 402.5 c 128,-1,31
EndSplineSet
EndChar
StartChar: multiply
Encoding: 215 215 313
Width: 632
GlyphClass: 1
Flags: W
LayerCount: 2
Fore
SplineSet
106 90 m 1,0,-1
 264 248 l 1,1,-1
 105 406 l 1,2,-1
 158 459 l 1,3,-1
 316 300 l 1,4,-1
 475 459 l 1,5,-1
 527 406 l 1,6,-1
 368 248 l 1,7,-1
 526 90 l 1,8,-1
 474 38 l 1,9,-1
 316 196 l 1,10,-1
 159 38 l 1,11,-1
 106 90 l 1,0,-1
EndSplineSet
EndChar
StartChar: Oslash
Encoding: 216 216 68
Width: 632
GlyphClass: 2
Flags: W
AnchorPoint: "Anchor-3" 626 668 basechar 0
AnchorPoint: "Anchor-2" 578 10 basechar 0
AnchorPoint: "Anchor-1" 317 668 basechar 0
AnchorPoint: "Anchor-0" 317 0 basechar 0
LayerCount: 2
Fore
SplineSet
139 57 m 1,1,-1
 91 -6 l 1,2,-1
 52 25 l 1,3,-1
 105 95 l 1,4,5
 73 140 73 140 56.5 201 c 128,-1,6
 40 262 40 262 40 334 c 0,7,8
 40 436 40 436 73 514.5 c 128,-1,9
 106 593 106 593 168.5 636.5 c 128,-1,10
 231 680 231 680 316 680 c 0,11,12
 422 680 422 680 494 611 c 1,13,-1
 541 673 l 1,14,-1
 582 643 l 1,15,-1
 528 572 l 1,16,17
 592 481 592 481 592 334 c 0,18,19
 592 232 592 232 559 153.5 c 128,-1,20
 526 75 526 75 463.5 31.5 c 128,-1,21
 401 -12 401 -12 316 -12 c 0,22,0
 210 -12 210 -12 139 57 c 1,1,-1
414 92.5 m 128,-1,24
 457 124 457 124 481 185.5 c 128,-1,25
 505 247 505 247 505 334 c 0,26,27
 505 429 505 429 473 496 c 1,28,-1
 187 122 l 1,29,30
 212 92 212 92 245 76.5 c 128,-1,31
 278 61 278 61 316 61 c 0,32,23
 371 61 371 61 414 92.5 c 128,-1,24
316 607 m 0,34,35
 261 607 261 607 218 575.5 c 128,-1,36
 175 544 175 544 151 482.5 c 128,-1,37
 127 421 127 421 127 334 c 0,38,39
 127 237 127 237 160 171 c 1,40,-1
 446 545 l 1,41,33
 396 607 396 607 316 607 c 0,34,35
EndSplineSet
EndChar
StartChar: Thorn
Encoding: 222 222 72
Width: 632
GlyphClass: 2
Flags: W
AnchorPoint: "Anchor-1" 306 668 basechar 0
AnchorPoint: "Anchor-0" 306 0 basechar 0
LayerCount: 2
Fore
SplineSet
104 668 m 1,0,-1
 188 668 l 1,1,-1
 188 540 l 1,2,-1
 337 540 l 2,3,4
 447 540 447 540 512 489.5 c 128,-1,5
 577 439 577 439 577 341 c 0,6,7
 577 242 577 242 511.5 191 c 128,-1,8
 446 140 446 140 337 140 c 2,9,-1
 188 140 l 1,10,-1
 188 0 l 1,11,-1
 104 0 l 1,12,-1
 104 668 l 1,0,-1
491 341 m 0,14,15
 491 408 491 408 449 438 c 128,-1,16
 407 468 407 468 331 468 c 2,17,-1
 188 468 l 1,18,-1
 188 212 l 1,19,-1
 331 212 l 2,20,13
 491 212 491 212 491 341 c 0,14,15
EndSplineSet
EndChar
StartChar: germandbls
Encoding: 223 223 193
Width: 632
GlyphClass: 1
Flags: W
LayerCount: 2
Fore
SplineSet
298 -12 m 1,1,-1
 276 63 l 1,2,3
 297 58 297 58 330 58 c 0,4,5
 411 58 411 58 457 95.5 c 128,-1,6
 503 133 503 133 503 207 c 0,7,8
 503 256 503 256 476.5 292.5 c 128,-1,9
 450 329 450 329 404 349 c 128,-1,10
 358 369 358 369 301 369 c 2,11,-1
 289 369 l 1,12,-1
 289 439 l 1,13,14
 356 438 356 438 391 464.5 c 128,-1,15
 426 491 426 491 426 530 c 0,16,17
 426 565 426 565 392.5 588 c 128,-1,18
 359 611 359 611 305 611 c 0,19,20
 170 611 170 611 170 463 c 2,21,-1
 170 0 l 1,22,-1
 84 0 l 1,23,-1
 84 466 l 2,24,25
 84 568 84 568 140.5 624 c 128,-1,26
 197 680 197 680 305 680 c 0,27,28
 363 680 363 680 408 660.5 c 128,-1,29
 453 641 453 641 477.5 607.5 c 128,-1,30
 502 574 502 574 502 532 c 0,31,32
 502 447 502 447 419 412 c 1,33,34
 495 395 495 395 542 340 c 128,-1,35
 589 285 589 285 589 206 c 0,36,37
 589 97 589 97 519.5 41.5 c 128,-1,38
 450 -14 450 -14 338 -14 c 0,39,0
 326 -14 326 -14 298 -12 c 1,1,-1
EndSplineSet
EndChar
StartChar: ae
Encoding: 230 230 122
Width: 632
GlyphClass: 2
Flags: W
AnchorPoint: "Anchor-1" 315 496 basechar 0
AnchorPoint: "Anchor-0" 315 0 basechar 0
LayerCount: 2
Fore
SplineSet
50 24 m 128,-1,1
 12 60 12 60 12 122 c 0,2,3
 12 199 12 199 69 239.5 c 128,-1,4
 126 280 126 280 265 289 c 1,5,-1
 265 321 l 2,6,7
 265 446 265 446 182 446 c 0,8,9
 150 446 150 446 128.5 424.5 c 128,-1,10
 107 403 107 403 98 365 c 1,11,-1
 34 388 l 1,12,13
 53 445 53 445 92.5 476 c 128,-1,14
 132 507 132 507 185 507 c 0,15,16
 282 507 282 507 312 418 c 1,17,18
 335 461 335 461 369.5 484 c 128,-1,19
 404 507 404 507 448 507 c 0,20,21
 507 507 507 507 547 469.5 c 128,-1,22
 587 432 587 432 605 369.5 c 128,-1,23
 623 307 623 307 618 234 c 1,24,-1
 328 234 l 1,25,26
 328 169 328 169 347 127.5 c 128,-1,27
 366 86 366 86 394 68 c 128,-1,28
 422 50 422 50 451 50 c 0,29,30
 481 50 481 50 502 65 c 128,-1,31
 523 80 523 80 540 111 c 1,32,-1
 599 89 l 1,33,34
 546 -12 546 -12 447 -12 c 0,35,36
 394 -12 394 -12 355.5 14.5 c 128,-1,37
 317 41 317 41 295 90 c 1,38,39
 255 -12 255 -12 149 -12 c 0,40,0
 88 -12 88 -12 50 24 c 128,-1,1
235 83.5 m 128,-1,42
 264 119 264 119 265 197 c 2,43,-1
 265 234 l 1,44,45
 160 228 160 228 120.5 201.5 c 128,-1,46
 81 175 81 175 81 126 c 0,47,48
 81 91 81 91 101.5 69.5 c 128,-1,49
 122 48 122 48 158 48 c 0,50,41
 206 48 206 48 235 83.5 c 128,-1,42
520 398.5 m 128,-1,52
 495 444 495 444 443 444 c 0,53,54
 399 444 399 444 369 406.5 c 128,-1,55
 339 369 339 369 330 289 c 1,56,-1
 545 289 l 1,57,51
 545 353 545 353 520 398.5 c 128,-1,52
EndSplineSet
EndChar
StartChar: oslash
Encoding: 248 248 179
Width: 632
GlyphClass: 2
Flags: W
AnchorPoint: "Anchor-3" 590 496 basechar 0
AnchorPoint: "Anchor-2" 553 10 basechar 0
AnchorPoint: "Anchor-1" 316 496 basechar 0
AnchorPoint: "Anchor-0" 316 0 basechar 0
LayerCount: 2
Fore
SplineSet
232 1 m 128,-1,1
 191 14 191 14 158 40 c 1,2,-1
 112 -9 l 1,3,-1
 76 25 l 1,4,-1
 121 74 l 1,5,6
 64 143 64 143 64 248 c 0,7,8
 64 334 64 334 100 392.5 c 128,-1,9
 136 451 136 451 193.5 479 c 128,-1,10
 251 507 251 507 316 507 c 0,11,12
 408 507 408 507 474 455 c 1,13,-1
 520 505 l 1,14,-1
 556 471 l 1,15,-1
 511 422 l 1,16,17
 568 355 568 355 568 248 c 0,18,19
 568 162 568 162 532 103.5 c 128,-1,20
 496 45 496 45 438.5 16.5 c 128,-1,21
 381 -12 381 -12 316 -12 c 0,22,0
 273 -12 273 -12 232 1 c 128,-1,1
398.5 79 m 128,-1,24
 436 100 436 100 458.5 143 c 128,-1,25
 481 186 481 186 481 248 c 0,26,27
 481 314 481 314 452 359 c 1,28,-1
 209 97 l 1,29,30
 253 58 253 58 316 58 c 0,31,23
 361 58 361 58 398.5 79 c 128,-1,24
316 437 m 0,33,34
 271 437 271 437 233.5 416 c 128,-1,35
 196 395 196 395 173.5 352.5 c 128,-1,36
 151 310 151 310 151 248 c 0,37,38
 151 182 151 182 179 138 c 1,39,-1
 423 399 l 1,40,32
 381 437 381 437 316 437 c 0,33,34
EndSplineSet
EndChar
StartChar: aogonek
Encoding: 261 261 119
Width: 632
GlyphClass: 2
Flags: W
AnchorPoint: "Anchor-1" 312 496 basechar 0
LayerCount: 2
Fore
SplineSet
396.5 -148 m 128,-1,1
 370 -126 370 -126 370 -91 c 0,2,3
 370 -57 370 -57 391 -32.5 c 128,-1,4
 412 -8 412 -8 452 11 c 1,5,-1
 436 75 l 1,6,7
 415 35 415 35 370 11.5 c 128,-1,8
 325 -12 325 -12 255 -12 c 0,9,10
 176 -12 176 -12 127.5 24.5 c 128,-1,11
 79 61 79 61 79 125 c 0,12,13
 79 213 79 213 164 255.5 c 128,-1,14
 249 298 249 298 429 310 c 1,15,-1
 429 321 l 2,16,17
 429 444 429 444 309 444 c 0,18,19
 260 444 260 444 228.5 422 c 128,-1,20
 197 400 197 400 188 365 c 1,21,-1
 109 388 l 1,22,23
 130 444 130 444 183.5 475.5 c 128,-1,24
 237 507 237 507 311 507 c 0,25,26
 511 507 511 507 511 313 c 2,27,-1
 511 191 l 2,28,29
 511 76 511 76 529 0 c 1,30,31
 487 -12 487 -12 464 -33 c 128,-1,32
 441 -54 441 -54 441 -79 c 0,33,34
 441 -99 441 -99 455 -108.5 c 128,-1,35
 469 -118 469 -118 490 -118 c 0,36,37
 509 -118 509 -118 529 -110 c 1,38,-1
 529 -161 l 1,39,40
 506 -170 506 -170 472 -170 c 0,41,0
 423 -170 423 -170 396.5 -148 c 128,-1,1
387.5 86.5 m 128,-1,43
 429 121 429 121 429 198 c 2,44,-1
 429 251 l 1,45,46
 294 242 294 242 230 214 c 128,-1,47
 166 186 166 186 166 131 c 0,48,49
 166 95 166 95 195 73.5 c 128,-1,50
 224 52 224 52 275 52 c 0,51,42
 346 52 346 52 387.5 86.5 c 128,-1,43
EndSplineSet
EndChar
StartChar: dcroat
Encoding: 273 273 131
Width: 632
GlyphClass: 1
Flags: W
LayerCount: 2
Fore
SplineSet
163 19.5 m 128,-1,1
 111 51 111 51 82 110 c 128,-1,2
 53 169 53 169 53 249 c 256,3,4
 53 329 53 329 82 387.5 c 128,-1,5
 111 446 111 446 163 476.5 c 128,-1,6
 215 507 215 507 283 507 c 0,7,8
 340 507 340 507 386 481.5 c 128,-1,9
 432 456 432 456 458 413 c 1,10,-1
 458 556 l 1,11,-1
 298 556 l 1,12,-1
 298 607 l 1,13,-1
 458 607 l 1,14,-1
 458 708 l 1,15,-1
 543 708 l 1,16,-1
 543 607 l 1,17,-1
 605 607 l 1,18,-1
 605 556 l 1,19,-1
 543 556 l 1,20,-1
 543 186 l 2,21,22
 543 87 543 87 560 0 c 1,23,-1
 480 0 l 1,24,-1
 458 78 l 1,25,26
 429 36 429 36 384 12 c 128,-1,27
 339 -12 339 -12 283 -12 c 0,28,0
 215 -12 215 -12 163 19.5 c 128,-1,1
416.5 108.5 m 128,-1,30
 460 159 460 159 460 248 c 0,31,32
 460 336 460 336 416.5 386.5 c 128,-1,33
 373 437 373 437 302 437 c 0,34,35
 228 437 228 437 184 387.5 c 128,-1,36
 140 338 140 338 140 249 c 0,37,38
 140 159 140 159 184.5 108.5 c 128,-1,39
 229 58 229 58 302 58 c 0,40,29
 373 58 373 58 416.5 108.5 c 128,-1,30
EndSplineSet
EndChar
StartChar: Eogonek
Encoding: 280 280 31
Width: 632
GlyphClass: 2
Flags: W
AnchorPoint: "Anchor-1" 284 668 basechar 0
LayerCount: 2
Fore
SplineSet
123 668 m 1,0,-1
 541 668 l 1,1,-1
 541 591 l 1,2,-1
 211 591 l 1,3,-1
 211 382 l 1,4,-1
 459 382 l 1,5,-1
 459 306 l 1,6,-1
 211 306 l 1,7,-1
 211 77 l 1,8,-1
 545 77 l 1,9,-1
 545 0 l 1,10,11
 508 -10 508 -10 482.5 -32 c 128,-1,12
 457 -54 457 -54 457 -78 c 0,13,14
 457 -98 457 -98 470.5 -108 c 128,-1,15
 484 -118 484 -118 505 -118 c 0,16,17
 524 -118 524 -118 545 -110 c 1,18,-1
 545 -161 l 1,19,20
 522 -170 522 -170 487 -170 c 0,21,22
 438 -170 438 -170 412 -148 c 128,-1,23
 386 -126 386 -126 386 -91 c 0,24,25
 386 -36 386 -36 449 0 c 1,26,-1
 123 0 l 1,27,-1
 123 668 l 1,0,-1
EndSplineSet
EndChar
StartChar: uni0123
Encoding: 291 291 145
Width: 632
GlyphClass: 2
Flags: W
AnchorPoint: "Anchor-1" 335 760 basechar 0
AnchorPoint: "Anchor-0" 317 -251 basechar 0
LayerCount: 2
Fore
SplineSet
181 -163.5 m 128,-1,1
 123 -136 123 -136 103 -78 c 1,2,-1
 179 -51 l 1,3,4
 190 -84 190 -84 225 -102.5 c 128,-1,5
 260 -121 260 -121 314 -121 c 0,6,7
 379 -121 379 -121 418.5 -90.5 c 128,-1,8
 458 -60 458 -60 458 3 c 2,9,-1
 458 97 l 1,10,11
 429 56 429 56 384.5 32.5 c 128,-1,12
 340 9 340 9 284 9 c 0,13,14
 220 9 220 9 169 38.5 c 128,-1,15
 118 68 118 68 88.5 124 c 128,-1,16
 59 180 59 180 59 256 c 0,17,18
 59 335 59 335 88 391.5 c 128,-1,19
 117 448 117 448 168 477.5 c 128,-1,20
 219 507 219 507 282 507 c 0,21,22
 340 507 340 507 386 481.5 c 128,-1,23
 432 456 432 456 458 413 c 1,24,-1
 474 496 l 1,25,-1
 543 496 l 1,26,-1
 543 9 l 2,27,28
 543 -87 543 -87 480.5 -139 c 128,-1,29
 418 -191 418 -191 312 -191 c 0,30,0
 239 -191 239 -191 181 -163.5 c 128,-1,1
418 125.5 m 128,-1,32
 460 172 460 172 460 256 c 256,33,34
 460 340 460 340 417.5 388.5 c 128,-1,35
 375 437 375 437 305 437 c 0,36,37
 234 437 234 437 190 389.5 c 128,-1,38
 146 342 146 342 146 258 c 0,39,40
 146 173 146 173 189.5 126 c 128,-1,41
 233 79 233 79 305 79 c 0,42,31
 376 79 376 79 418 125.5 c 128,-1,32
269.5 609.5 m 128,-1,44
 257 629 257 629 257 654 c 0,45,46
 257 700 257 700 291.5 729 c 128,-1,47
 326 758 326 758 376 760 c 1,48,-1
 413 729 l 1,49,50
 377 727 377 727 351 710 c 128,-1,51
 325 693 325 693 325 661 c 0,52,53
 325 642 325 642 337.5 625 c 128,-1,54
 350 608 350 608 372 598 c 1,55,-1
 310 572 l 1,56,43
 282 590 282 590 269.5 609.5 c 128,-1,44
EndSplineSet
EndChar
StartChar: hbar
Encoding: 295 295 148
Width: 632
GlyphClass: 1
Flags: W
LayerCount: 2
Fore
SplineSet
103 556 m 1,0,-1
 41 556 l 1,1,-1
 41 607 l 1,2,-1
 103 607 l 1,3,-1
 103 708 l 1,4,-1
 189 708 l 1,5,-1
 189 607 l 1,6,-1
 348 607 l 1,7,-1
 348 556 l 1,8,-1
 189 556 l 1,9,-1
 189 423 l 1,10,11
 210 456 210 456 253 481.5 c 128,-1,12
 296 507 296 507 355 507 c 0,13,14
 445 507 445 507 488.5 458.5 c 128,-1,15
 532 410 532 410 532 325 c 2,16,-1
 532 0 l 1,17,-1
 447 0 l 1,18,-1
 447 303 l 2,19,20
 447 437 447 437 331 437 c 0,21,22
 266 437 266 437 227.5 392.5 c 128,-1,23
 189 348 189 348 189 267 c 2,24,-1
 189 0 l 1,25,-1
 103 0 l 1,26,-1
 103 556 l 1,0,-1
EndSplineSet
EndChar
StartChar: Iogonek
Encoding: 302 302 47
Width: 632
GlyphClass: 2
Flags: W
AnchorPoint: "Anchor-1" 316 668 basechar 0
LayerCount: 2
Fore
SplineSet
133 65 m 1,0,-1
 272 65 l 1,1,-1
 272 603 l 1,2,-1
 133 603 l 1,3,-1
 133 668 l 1,4,-1
 499 668 l 1,5,-1
 499 603 l 1,6,-1
 360 603 l 1,7,-1
 360 65 l 1,8,-1
 499 65 l 1,9,-1
 499 0 l 1,10,11
 461 -10 461 -10 435.5 -32 c 128,-1,12
 410 -54 410 -54 410 -78 c 0,13,14
 410 -98 410 -98 423.5 -108 c 128,-1,15
 437 -118 437 -118 458 -118 c 0,16,17
 478 -118 478 -118 499 -110 c 1,18,-1
 499 -161 l 1,19,20
 475 -170 475 -170 441 -170 c 0,21,22
 392 -170 392 -170 366 -148 c 128,-1,23
 340 -126 340 -126 340 -91 c 0,24,25
 340 -36 340 -36 402 0 c 1,26,-1
 133 0 l 1,27,-1
 133 65 l 1,0,-1
EndSplineSet
EndChar
StartChar: dotlessi
Encoding: 305 305 150
Width: 632
GlyphClass: 2
Flags: W
AnchorPoint: "Anchor-2" 546 10 basechar 0
AnchorPoint: "Anchor-1" 317 496 basechar 0
AnchorPoint: "Anchor-0" 310 0 basechar 0
LayerCount: 2
Fore
SplineSet
110 67 m 1,0,-1
 285 67 l 1,1,-1
 285 429 l 1,2,-1
 136 429 l 1,3,-1
 136 496 l 1,4,-1
 371 496 l 1,5,-1
 371 67 l 1,6,-1
 546 67 l 1,7,-1
 546 0 l 1,8,-1
 110 0 l 1,9,-1
 110 67 l 1,0,-1
EndSplineSet
EndChar
StartChar: lslash
Encoding: 322 322 166
Width: 632
GlyphClass: 1
Flags: W
LayerCount: 2
Fore
SplineSet
270.5 9.5 m 128,-1,1
 245 19 245 19 234 42.5 c 128,-1,2
 223 66 223 66 223 109 c 2,3,-1
 223 268 l 1,4,-1
 162 229 l 1,5,-1
 162 298 l 1,6,-1
 223 337 l 1,7,-1
 223 641 l 1,8,-1
 108 641 l 1,9,-1
 108 708 l 1,10,-1
 309 708 l 1,11,-1
 309 387 l 1,12,-1
 412 451 l 1,13,-1
 412 382 l 1,14,-1
 309 318 l 1,15,-1
 309 125 l 2,16,17
 309 92 309 92 319 81.5 c 128,-1,18
 329 71 329 71 363 71 c 2,19,-1
 544 71 l 1,20,-1
 544 0 l 1,21,-1
 343 0 l 2,22,0
 296 0 296 0 270.5 9.5 c 128,-1,1
EndSplineSet
EndChar
StartChar: Scedilla
Encoding: 350 350 80
Width: 632
GlyphClass: 2
Flags: W
AnchorPoint: "Anchor-1" 316 668 basechar 0
LayerCount: 2
Fore
SplineSet
263 -174.5 m 128,-1,1
 240 -169 240 -169 223 -159 c 1,2,-1
 238 -127 l 1,3,4
 269 -142 269 -142 302 -142 c 0,5,6
 325 -142 325 -142 337 -132 c 128,-1,7
 349 -122 349 -122 349 -108 c 0,8,9
 349 -79 349 -79 309 -79 c 0,10,11
 302 -79 302 -79 287.5 -82 c 128,-1,12
 273 -85 273 -85 268 -85 c 0,13,14
 254 -85 254 -85 254 -71 c 0,15,16
 254 -63 254 -63 258 -56 c 2,17,-1
 285 -11 l 1,18,19
 208 -4 208 -4 146.5 36 c 128,-1,20
 85 76 85 76 63 145 c 1,21,-1
 146 176 l 1,22,23
 162 120 162 120 209.5 90.5 c 128,-1,24
 257 61 257 61 318 61 c 0,25,26
 388 61 388 61 434 93.5 c 128,-1,27
 480 126 480 126 480 186 c 0,28,29
 480 229 480 229 448.5 255 c 128,-1,30
 417 281 417 281 340 299 c 2,31,-1
 257 319 l 2,32,33
 175 338 175 338 127 379.5 c 128,-1,34
 79 421 79 421 79 495 c 0,35,36
 79 548 79 548 110.5 590.5 c 128,-1,37
 142 633 142 633 196.5 656.5 c 128,-1,38
 251 680 251 680 318 680 c 0,39,40
 392 680 392 680 454 649 c 128,-1,41
 516 618 516 618 545 556 c 1,42,-1
 463 525 l 1,43,44
 444 564 444 564 402.5 585.5 c 128,-1,45
 361 607 361 607 315 607 c 0,46,47
 252 607 252 607 210 578.5 c 128,-1,48
 168 550 168 550 168 497 c 0,49,50
 168 459 168 459 197.5 434.5 c 128,-1,51
 227 410 227 410 276 399 c 2,52,-1
 363 377 l 2,53,54
 465 353 465 353 517 311.5 c 128,-1,55
 569 270 569 270 569 190 c 0,56,57
 569 132 569 132 536.5 87 c 128,-1,58
 504 42 504 42 449.5 16.5 c 128,-1,59
 395 -9 395 -9 329 -12 c 1,60,-1
 305 -48 l 1,61,62
 323 -45 323 -45 337 -45 c 0,63,64
 367 -45 367 -45 387 -61 c 128,-1,65
 407 -77 407 -77 407 -102 c 0,66,67
 407 -133 407 -133 379 -156.5 c 128,-1,68
 351 -180 351 -180 306 -180 c 0,69,0
 286 -180 286 -180 263 -174.5 c 128,-1,1
EndSplineSet
Substitution2: "'locl' Localized Forms in Latin lookup 4 subtable" uni0218
AlternateSubs2: "'aalt' Access All Alternates in Latin lookup 0 subtable" uni0218
EndChar
StartChar: uni0162
Encoding: 354 354 85
Width: 632
GlyphClass: 2
Flags: W
AnchorPoint: "Anchor-1" 316 668 basechar 0
LayerCount: 2
Fore
SplineSet
272 591 m 1,0,-1
 59 591 l 1,1,-1
 59 668 l 1,2,-1
 573 668 l 1,3,-1
 573 591 l 1,4,-1
 360 591 l 1,5,-1
 360 0 l 1,6,-1
 338 0 l 1,7,-1
 307 -48 l 1,8,9
 325 -45 325 -45 339 -45 c 0,10,11
 369 -45 369 -45 389 -61 c 128,-1,12
 409 -77 409 -77 409 -102 c 0,13,14
 409 -133 409 -133 381 -156.5 c 128,-1,15
 353 -180 353 -180 308 -180 c 0,16,17
 288 -180 288 -180 265 -174.5 c 128,-1,18
 242 -169 242 -169 225 -159 c 1,19,-1
 240 -127 l 1,20,21
 271 -142 271 -142 304 -142 c 0,22,23
 327 -142 327 -142 339 -132 c 128,-1,24
 351 -122 351 -122 351 -108 c 0,25,26
 351 -79 351 -79 311 -79 c 0,27,28
 304 -79 304 -79 289.5 -82 c 128,-1,29
 275 -85 275 -85 270 -85 c 0,30,31
 256 -85 256 -85 256 -71 c 0,32,33
 256 -63 256 -63 260 -56 c 2,34,-1
 294 0 l 1,35,-1
 272 0 l 1,36,-1
 272 591 l 1,0,-1
EndSplineSet
Substitution2: "'locl' Localized Forms in Latin lookup 4 subtable" uni021A
AlternateSubs2: "'aalt' Access All Alternates in Latin lookup 0 subtable" uni021A
EndChar
StartChar: uni0163
Encoding: 355 355 196
Width: 632
GlyphClass: 2
Flags: W
AnchorPoint: "Anchor-3" 340 545 basechar 0
AnchorPoint: "Anchor-1" 286 496 basechar 0
LayerCount: 2
Fore
SplineSet
279 -174.5 m 128,-1,1
 256 -169 256 -169 239 -159 c 1,2,-1
 254 -127 l 1,3,4
 284 -142 284 -142 318 -142 c 0,5,6
 341 -142 341 -142 352.5 -132 c 128,-1,7
 364 -122 364 -122 364 -108 c 0,8,9
 364 -79 364 -79 324 -79 c 0,10,11
 316 -79 316 -79 301.5 -82 c 128,-1,12
 287 -85 287 -85 284 -85 c 0,13,14
 269 -85 269 -85 269 -70 c 0,15,16
 269 -63 269 -63 273 -56 c 2,17,-1
 309 2 l 1,18,19
 262 7 262 7 243.5 33 c 128,-1,20
 225 59 225 59 225 124 c 2,21,-1
 225 429 l 1,22,-1
 118 429 l 1,23,-1
 118 496 l 1,24,-1
 225 496 l 1,25,-1
 225 620 l 1,26,-1
 310 620 l 1,27,-1
 310 496 l 1,28,-1
 521 496 l 1,29,-1
 521 429 l 1,30,-1
 310 429 l 1,31,-1
 310 136 l 2,32,33
 310 108 310 108 314.5 94.5 c 128,-1,34
 319 81 319 81 331 76 c 128,-1,35
 343 71 343 71 368 71 c 2,36,-1
 471 71 l 1,37,-1
 471 0 l 1,38,-1
 352 0 l 1,39,-1
 321 -48 l 1,40,41
 339 -45 339 -45 353 -45 c 0,42,43
 383 -45 383 -45 403 -61 c 128,-1,44
 423 -77 423 -77 423 -102 c 0,45,46
 423 -133 423 -133 395 -156.5 c 128,-1,47
 367 -180 367 -180 322 -180 c 0,48,0
 302 -180 302 -180 279 -174.5 c 128,-1,1
EndSplineSet
Substitution2: "'locl' Localized Forms in Latin lookup 4 subtable" uni021B
AlternateSubs2: "'aalt' Access All Alternates in Latin lookup 0 subtable" uni021B
EndChar
StartChar: Uring
Encoding: 366 366 95
Width: 632
GlyphClass: 2
Flags: W
AnchorPoint: "Anchor-3" 640 668 basechar 0
AnchorPoint: "Anchor-1" 316 887 basechar 0
LayerCount: 2
Fore
SplineSet
132.5 52.5 m 128,-1,1
 75 117 75 117 75 250 c 2,2,-1
 75 668 l 1,3,-1
 164 668 l 1,4,-1
 164 241 l 2,5,6
 164 151 164 151 200 106 c 128,-1,7
 236 61 236 61 316 61 c 256,8,9
 396 61 396 61 432 106 c 128,-1,10
 468 151 468 151 468 241 c 2,11,-1
 468 668 l 1,12,-1
 557 668 l 1,13,-1
 557 250 l 2,14,15
 557 117 557 117 499 52.5 c 128,-1,16
 441 -12 441 -12 316 -12 c 0,17,0
 190 -12 190 -12 132.5 52.5 c 128,-1,1
239.5 703 m 128,-1,19
 207 735 207 735 207 779 c 256,20,21
 207 823 207 823 239.5 855 c 128,-1,22
 272 887 272 887 318 887 c 0,23,24
 363 887 363 887 393 855.5 c 128,-1,25
 423 824 423 824 423 779 c 256,26,27
 423 734 423 734 393 702.5 c 128,-1,28
 363 671 363 671 318 671 c 0,29,18
 272 671 272 671 239.5 703 c 128,-1,19
352.5 743 m 128,-1,31
 368 758 368 758 368 779 c 256,32,33
 368 800 368 800 352.5 815 c 128,-1,34
 337 830 337 830 315 830 c 0,35,36
 294 830 294 830 278.5 815 c 128,-1,37
 263 800 263 800 263 779 c 256,38,39
 263 758 263 758 278.5 743 c 128,-1,40
 294 728 294 728 315 728 c 0,41,30
 337 728 337 728 352.5 743 c 128,-1,31
EndSplineSet
EndChar
StartChar: uogonek
Encoding: 371 371 205
Width: 632
GlyphClass: 2
Flags: W
AnchorPoint: "Anchor-3" 561 496 basechar 0
AnchorPoint: "Anchor-1" 314 496 basechar 0
LayerCount: 2
Fore
SplineSet
105 178 m 2,1,-1
 105 496 l 1,2,-1
 191 496 l 1,3,-1
 191 202 l 2,4,5
 191 132 191 132 215.5 95 c 128,-1,6
 240 58 240 58 302 58 c 0,7,8
 365 58 365 58 401.5 101 c 128,-1,9
 438 144 438 144 438 225 c 2,10,-1
 438 496 l 1,11,-1
 523 496 l 1,12,-1
 523 0 l 1,13,14
 481 -12 481 -12 458 -33 c 128,-1,15
 435 -54 435 -54 435 -79 c 0,16,17
 435 -99 435 -99 449.5 -108.5 c 128,-1,18
 464 -118 464 -118 485 -118 c 0,19,20
 503 -118 503 -118 523 -110 c 1,21,-1
 523 -161 l 1,22,23
 500 -170 500 -170 466 -170 c 0,24,25
 417 -170 417 -170 390.5 -148 c 128,-1,26
 364 -126 364 -126 364 -91 c 256,27,28
 364 -56 364 -56 386.5 -31.5 c 128,-1,29
 409 -7 409 -7 452 14 c 1,30,-1
 440 77 l 1,31,32
 419 38 419 38 379.5 13 c 128,-1,33
 340 -12 340 -12 280 -12 c 0,34,0
 105 -12 105 -12 105 178 c 2,1,-1
EndSplineSet
EndChar
StartChar: uni0237
Encoding: 567 567 159
Width: 632
GlyphClass: 2
Flags: W
AnchorPoint: "Anchor-1" 348 496 basechar 0
AnchorPoint: "Anchor-0" 342 -251 basechar 0
LayerCount: 2
Fore
SplineSet
91 -91 m 1,0,-1
 230 -91 l 2,1,2
 269 -91 269 -91 286.5 -84.5 c 128,-1,3
 304 -78 304 -78 310 -60.5 c 128,-1,4
 316 -43 316 -43 316 -5 c 2,5,-1
 316 429 l 1,6,-1
 166 429 l 1,7,-1
 166 496 l 1,8,-1
 401 496 l 1,9,-1
 401 -9 l 2,10,11
 401 -70 401 -70 388 -102 c 128,-1,12
 375 -134 375 -134 340.5 -148 c 128,-1,13
 306 -162 306 -162 239 -162 c 2,14,-1
 91 -162 l 1,15,-1
 91 -91 l 1,0,-1
EndSplineSet
EndChar
StartChar: tildecomb
Encoding: 771 771 355
Width: 0
GlyphClass: 4
Flags: W
AnchorPoint: "Anchor-5" 316 668 basemark 0
AnchorPoint: "Anchor-5" 316 496 mark 0
AnchorPoint: "Anchor-1" 316 496 mark 0
LayerCount: 2
Fore
SplineSet
347 579.5 m 128,-1,1
 332 585 332 585 310 596 c 0,2,3
 293 605 293 605 283 609 c 128,-1,4
 273 613 273 613 262 613 c 0,5,6
 244 613 244 613 232 603.5 c 128,-1,7
 220 594 220 594 218 576 c 1,8,-1
 163 576 l 1,9,10
 171 622 171 622 196.5 644 c 128,-1,11
 222 666 222 666 261 666 c 0,12,13
 280 666 280 666 294.5 660.5 c 128,-1,14
 309 655 309 655 328 644 c 0,15,16
 343 635 343 635 354 631 c 128,-1,17
 365 627 365 627 378 627 c 0,18,19
 392 627 392 627 401 633.5 c 128,-1,20
 410 640 410 640 419 652 c 0,21,22
 431 669 431 669 445 669 c 0,23,24
 455 669 455 669 462 662 c 128,-1,25
 469 655 469 655 469 643 c 0,26,27
 469 630 469 630 457.5 613.5 c 128,-1,28
 446 597 446 597 426 585.5 c 128,-1,29
 406 574 406 574 382 574 c 0,30,0
 362 574 362 574 347 579.5 c 128,-1,1
EndSplineSet
Substitution2: "Single Substitution lookup 12 subtable" tildecomb.case
Substitution2: "'case' Case-Sensitive Forms in Latin lookup 9 subtable" tildecomb.case
AlternateSubs2: "'aalt' Access All Alternates in Latin lookup 0 subtable" tildecomb.case
EndChar
StartChar: uni0306
Encoding: 774 774 351
Width: 0
GlyphClass: 4
Flags: W
AnchorPoint: "Anchor-5" 316 680 basemark 0
AnchorPoint: "Anchor-5" 316 496 mark 0
AnchorPoint: "Anchor-1" 316 496 mark 0
LayerCount: 2
Fore
SplineSet
233 599 m 128,-1,1
 200 629 200 629 191 676 c 1,2,-1
 245 676 l 1,3,4
 250 655 250 655 268.5 639 c 128,-1,5
 287 623 287 623 316 623 c 0,6,7
 344 623 344 623 362.5 639 c 128,-1,8
 381 655 381 655 387 676 c 1,9,-1
 441 676 l 1,10,11
 432 630 432 630 398.5 599.5 c 128,-1,12
 365 569 365 569 316 569 c 0,13,0
 266 569 266 569 233 599 c 128,-1,1
EndSplineSet
Substitution2: "Single Substitution lookup 12 subtable" uni0306.case
Substitution2: "'case' Case-Sensitive Forms in Latin lookup 9 subtable" uni0306.case
AlternateSubs2: "'aalt' Access All Alternates in Latin lookup 0 subtable" uni0306.case
EndChar
StartChar: uni0307
Encoding: 775 775 337
Width: 0
GlyphClass: 4
Flags: W
AnchorPoint: "Anchor-5" 316 698 basemark 0
AnchorPoint: "Anchor-5" 316 496 mark 0
AnchorPoint: "Anchor-1" 316 496 mark 0
LayerCount: 2
Fore
SplineSet
277.5 605.5 m 128,-1,1
 261 622 261 622 261 644 c 256,2,3
 261 666 261 666 277.5 682 c 128,-1,4
 294 698 294 698 316 698 c 256,5,6
 338 698 338 698 354.5 682 c 128,-1,7
 371 666 371 666 371 644 c 256,8,9
 371 622 371 622 354.5 605.5 c 128,-1,10
 338 589 338 589 316 589 c 256,11,0
 294 589 294 589 277.5 605.5 c 128,-1,1
EndSplineSet
Substitution2: "Single Substitution lookup 12 subtable" uni0307.case
Substitution2: "'case' Case-Sensitive Forms in Latin lookup 9 subtable" uni0307.case
AlternateSubs2: "'aalt' Access All Alternates in Latin lookup 0 subtable" uni0307.case
EndChar
StartChar: uni030A
Encoding: 778 778 353
Width: 0
GlyphClass: 4
Flags: W
AnchorPoint: "Anchor-5" 316 773 basemark 0
AnchorPoint: "Anchor-5" 316 496 mark 0
AnchorPoint: "Anchor-1" 316 496 mark 0
LayerCount: 2
Fore
SplineSet
242 594 m 128,-1,1
 211 625 211 625 211 668 c 0,2,3
 211 712 211 712 242 742.5 c 128,-1,4
 273 773 273 773 316 773 c 0,5,6
 360 773 360 773 390.5 742.5 c 128,-1,7
 421 712 421 712 421 668 c 256,8,9
 421 624 421 624 390.5 593.5 c 128,-1,10
 360 563 360 563 316 563 c 0,11,0
 273 563 273 563 242 594 c 128,-1,1
353.5 630.5 m 128,-1,13
 369 646 369 646 369 668 c 256,14,15
 369 690 369 690 353.5 705.5 c 128,-1,16
 338 721 338 721 316 721 c 256,17,18
 294 721 294 721 278.5 705.5 c 128,-1,19
 263 690 263 690 263 668 c 256,20,21
 263 646 263 646 278.5 630.5 c 128,-1,22
 294 615 294 615 316 615 c 256,23,12
 338 615 338 615 353.5 630.5 c 128,-1,13
EndSplineSet
Substitution2: "Single Substitution lookup 12 subtable" uni030A.case
Substitution2: "'case' Case-Sensitive Forms in Latin lookup 9 subtable" uni030A.case
AlternateSubs2: "'aalt' Access All Alternates in Latin lookup 0 subtable" uni030A.case
EndChar
StartChar: uni0328
Encoding: 808 808 361
Width: 0
GlyphClass: 4
Flags: W
AnchorPoint: "Anchor-2" 396 10 mark 0
LayerCount: 2
Fore
SplineSet
263 -148 m 128,-1,1
 237 -126 237 -126 237 -91 c 0,2,3
 237 -55 237 -55 261 -29.5 c 128,-1,4
 285 -4 285 -4 331 17 c 1,5,-1
 396 0 l 1,6,7
 354 -12 354 -12 330.5 -33 c 128,-1,8
 307 -54 307 -54 307 -79 c 0,9,10
 307 -99 307 -99 321.5 -108.5 c 128,-1,11
 336 -118 336 -118 357 -118 c 0,12,13
 376 -118 376 -118 396 -110 c 1,14,-1
 396 -161 l 1,15,16
 372 -170 372 -170 338 -170 c 0,17,0
 289 -170 289 -170 263 -148 c 128,-1,1
EndSplineSet
Substitution2: "Single Substitution lookup 12 subtable" uni0328.case
Substitution2: "'case' Case-Sensitive Forms in Latin lookup 9 subtable" uni0328.case
AlternateSubs2: "'aalt' Access All Alternates in Latin lookup 0 subtable" uni0328.case
EndChar
StartChar: pi
Encoding: 960 960 228
Width: 632
GlyphClass: 1
Flags: W
LayerCount: 2
Fore
SplineSet
133 430 m 1,0,-1
 56 430 l 1,1,-1
 56 496 l 1,2,-1
 558 496 l 1,3,-1
 558 430 l 1,4,-1
 474 430 l 1,5,-1
 474 117 l 2,6,7
 474 84 474 84 483.5 75 c 128,-1,8
 493 66 493 66 525 66 c 2,9,-1
 558 66 l 1,10,-1
 558 0 l 1,11,-1
 508 0 l 2,12,13
 459 0 459 0 436 9.5 c 128,-1,14
 413 19 413 19 404.5 44.5 c 128,-1,15
 396 70 396 70 396 124 c 2,16,-1
 396 430 l 1,17,-1
 210 430 l 1,18,-1
 210 0 l 1,19,-1
 133 0 l 1,20,-1
 133 430 l 1,0,-1
EndSplineSet
EndChar
StartChar: uni1E9E
Encoding: 7838 7838 82
Width: 632
GlyphClass: 1
Flags: W
LayerCount: 2
Fore
SplineSet
309.5 20 m 128,-1,1
 269 52 269 52 252 103 c 1,2,-1
 323 130 l 1,3,4
 341 61 341 61 418 61 c 0,5,6
 462 61 462 61 490 92 c 128,-1,7
 518 123 518 123 518 178 c 0,8,9
 518 234 518 234 488 263 c 128,-1,10
 458 292 458 292 415 292 c 0,11,12
 391 292 391 292 369 284 c 1,13,-1
 331 347 l 1,14,-1
 503 590 l 1,15,16
 413 609 413 609 345 609 c 0,17,18
 250 609 250 609 204 570 c 128,-1,19
 158 531 158 531 158 437 c 2,20,-1
 158 0 l 1,21,-1
 69 0 l 1,22,-1
 69 447 l 2,23,24
 69 569 69 569 137 624.5 c 128,-1,25
 205 680 205 680 335 680 c 0,26,27
 442 680 442 680 578 648 c 1,28,-1
 578 573 l 1,29,-1
 424 353 l 1,30,31
 472 356 472 356 512.5 334.5 c 128,-1,32
 553 313 553 313 577 271.5 c 128,-1,33
 601 230 601 230 601 176 c 0,34,35
 601 117 601 117 576 74.5 c 128,-1,36
 551 32 551 32 509.5 10 c 128,-1,37
 468 -12 468 -12 421 -12 c 0,38,0
 350 -12 350 -12 309.5 20 c 128,-1,1
EndSplineSet
EndChar
StartChar: endash
Encoding: 8211 8211 265
Width: 632
GlyphClass: 1
Flags: W
LayerCount: 2
Fore
SplineSet
102 286 m 1,0,-1
 530 286 l 1,1,-1
 530 209 l 1,2,-1
 102 209 l 1,3,-1
 102 286 l 1,0,-1
EndSplineSet
EndChar
StartChar: quoteright
Encoding: 8217 8217 279
Width: 632
GlyphClass: 1
Flags: W
LayerCount: 2
Fore
SplineSet
264 564.5 m 128,-1,1
 247 584 247 584 247 610 c 0,2,3
 247 639 247 639 267.5 659.5 c 128,-1,4
 288 680 288 680 317 680 c 256,5,6
 346 680 346 680 366 659.5 c 128,-1,7
 386 639 386 639 386 610 c 0,8,9
 386 594 386 594 379 578 c 2,10,-1
 313 408 l 1,11,-1
 254 408 l 1,12,-1
 306 542 l 1,13,0
 281 545 281 545 264 564.5 c 128,-1,1
EndSplineSet
EndChar
StartChar: quotedblleft
Encoding: 8220 8220 276
Width: 632
GlyphClass: 1
Flags: W
LayerCount: 2
Fore
SplineSet
368 421 m 128,-1,1
 348 441 348 441 348 469 c 0,2,3
 348 481 348 481 355 502 c 2,4,-1
 420 668 l 1,5,-1
 478 668 l 1,6,-1
 427 536 l 1,7,8
 452 533 452 533 468.5 514 c 128,-1,9
 485 495 485 495 485 469 c 0,10,11
 485 441 485 441 465.5 421 c 128,-1,12
 446 401 446 401 417 401 c 256,13,0
 388 401 388 401 368 421 c 128,-1,1
166 421 m 128,-1,15
 146 441 146 441 146 469 c 0,16,17
 146 485 146 485 153 501 c 2,18,-1
 218 668 l 1,19,-1
 276 668 l 1,20,-1
 225 536 l 1,21,22
 249 533 249 533 266 513.5 c 128,-1,23
 283 494 283 494 283 469 c 0,24,25
 283 441 283 441 263 421 c 128,-1,26
 243 401 243 401 214 401 c 0,27,14
 186 401 186 401 166 421 c 128,-1,15
EndSplineSet
EndChar
StartChar: quotedblright
Encoding: 8221 8221 277
Width: 632
GlyphClass: 1
Flags: W
LayerCount: 2
Fore
SplineSet
366 567.5 m 128,-1,1
 349 587 349 587 349 612 c 0,2,3
 349 640 349 640 369 660 c 128,-1,4
 389 680 389 680 418 680 c 256,5,6
 447 680 447 680 466.5 660.5 c 128,-1,7
 486 641 486 641 486 612 c 0,8,9
 486 596 486 596 479 580 c 2,10,-1
 414 413 l 1,11,-1
 356 413 l 1,12,-1
 407 545 l 1,13,0
 383 548 383 548 366 567.5 c 128,-1,1
163.5 567 m 128,-1,15
 147 586 147 586 147 612 c 0,16,17
 147 641 147 641 167 660.5 c 128,-1,18
 187 680 187 680 215 680 c 0,19,20
 244 680 244 680 264 660 c 128,-1,21
 284 640 284 640 284 612 c 0,22,23
 284 600 284 600 277 580 c 2,24,-1
 212 413 l 1,25,-1
 154 413 l 1,26,-1
 205 545 l 1,27,14
 180 548 180 548 163.5 567 c 128,-1,15
EndSplineSet
EndChar
StartChar: quotedblbase
Encoding: 8222 8222 275
Width: 632
GlyphClass: 1
Flags: W
LayerCount: 2
Fore
SplineSet
163.5 9 m 128,-1,1
 147 28 147 28 147 53 c 0,2,3
 147 82 147 82 167 102 c 128,-1,4
 187 122 187 122 215 122 c 0,5,6
 244 122 244 122 264 102 c 128,-1,7
 284 82 284 82 284 53 c 0,8,9
 284 42 284 42 277 21 c 2,10,-1
 212 -145 l 1,11,-1
 154 -145 l 1,12,-1
 205 -14 l 1,13,0
 180 -10 180 -10 163.5 9 c 128,-1,1
366 9.5 m 128,-1,15
 349 29 349 29 349 54 c 0,16,17
 349 82 349 82 369 102 c 128,-1,18
 389 122 389 122 418 122 c 256,19,20
 447 122 447 122 466.5 102.5 c 128,-1,21
 486 83 486 83 486 54 c 0,22,23
 486 39 486 39 479 21 c 2,24,-1
 414 -145 l 1,25,-1
 356 -145 l 1,26,-1
 407 -13 l 1,27,14
 383 -10 383 -10 366 9.5 c 128,-1,15
EndSplineSet
EndChar
StartChar: dagger
Encoding: 8224 8224 298
Width: 632
GlyphClass: 1
Flags: W
LayerCount: 2
Fore
SplineSet
275 425 m 1,0,-1
 88 425 l 1,1,-1
 88 496 l 1,2,-1
 275 496 l 1,3,-1
 275 668 l 1,4,-1
 357 668 l 1,5,-1
 357 496 l 1,6,-1
 544 496 l 1,7,-1
 544 425 l 1,8,-1
 357 425 l 1,9,-1
 357 0 l 1,10,-1
 275 0 l 1,11,-1
 275 425 l 1,0,-1
EndSplineSet
EndChar
StartChar: bullet
Encoding: 8226 8226 259
Width: 632
GlyphClass: 1
Flags: W
LayerCount: 2
Fore
SplineSet
233 110.5 m 128,-1,1
 195 133 195 133 172.5 171 c 128,-1,2
 150 209 150 209 150 254 c 256,3,4
 150 299 150 299 172.5 337 c 128,-1,5
 195 375 195 375 233 397.5 c 128,-1,6
 271 420 271 420 316 420 c 256,7,8
 361 420 361 420 399 397.5 c 128,-1,9
 437 375 437 375 459.5 337 c 128,-1,10
 482 299 482 299 482 254 c 256,11,12
 482 209 482 209 459.5 171 c 128,-1,13
 437 133 437 133 399 110.5 c 128,-1,14
 361 88 361 88 316 88 c 256,15,0
 271 88 271 88 233 110.5 c 128,-1,1
EndSplineSet
EndChar
StartChar: perthousand
Encoding: 8240 8240 333
Width: 632
GlyphClass: 1
Flags: W
LayerCount: 2
Fore
SplineSet
102 431 m 128,-1,1
 71 449 71 449 52.5 480 c 128,-1,2
 34 511 34 511 34 547 c 0,3,4
 34 584 34 584 52.5 615 c 128,-1,5
 71 646 71 646 102 664 c 128,-1,6
 133 682 133 682 170 682 c 0,7,8
 206 682 206 682 237 664 c 128,-1,9
 268 646 268 646 286.5 615 c 128,-1,10
 305 584 305 584 305 547 c 0,11,12
 305 511 305 511 286.5 480 c 128,-1,13
 268 449 268 449 237 431 c 128,-1,14
 206 413 206 413 170 413 c 0,15,0
 133 413 133 413 102 431 c 128,-1,1
226 491 m 128,-1,17
 249 514 249 514 249 547 c 256,18,19
 249 580 249 580 226 603.5 c 128,-1,20
 203 627 203 627 170 627 c 0,21,22
 136 627 136 627 113 603.5 c 128,-1,23
 90 580 90 580 90 547 c 256,24,25
 90 514 90 514 113 491 c 128,-1,26
 136 468 136 468 170 468 c 0,27,16
 203 468 203 468 226 491 c 128,-1,17
102 4 m 128,-1,29
 71 22 71 22 52.5 53 c 128,-1,30
 34 84 34 84 34 120 c 0,31,32
 34 157 34 157 52.5 188 c 128,-1,33
 71 219 71 219 102 237 c 128,-1,34
 133 255 133 255 170 255 c 0,35,36
 206 255 206 255 237 237 c 128,-1,37
 268 219 268 219 286.5 188 c 128,-1,38
 305 157 305 157 305 120 c 0,39,40
 305 84 305 84 286.5 53 c 128,-1,41
 268 22 268 22 237 4 c 128,-1,42
 206 -14 206 -14 170 -14 c 0,43,28
 133 -14 133 -14 102 4 c 128,-1,29
226 64 m 128,-1,45
 249 87 249 87 249 120 c 256,46,47
 249 153 249 153 226 176.5 c 128,-1,48
 203 200 203 200 170 200 c 0,49,50
 136 200 136 200 113 176.5 c 128,-1,51
 90 153 90 153 90 120 c 256,52,53
 90 87 90 87 113 64 c 128,-1,54
 136 41 136 41 170 41 c 0,55,44
 203 41 203 41 226 64 c 128,-1,45
399 4 m 128,-1,57
 368 22 368 22 349.5 53 c 128,-1,58
 331 84 331 84 331 120 c 0,59,60
 331 157 331 157 349.5 188 c 128,-1,61
 368 219 368 219 399 237 c 128,-1,62
 430 255 430 255 467 255 c 0,63,64
 503 255 503 255 534 237 c 128,-1,65
 565 219 565 219 583.5 188 c 128,-1,66
 602 157 602 157 602 120 c 0,67,68
 602 84 602 84 583.5 53 c 128,-1,69
 565 22 565 22 534 4 c 128,-1,70
 503 -14 503 -14 467 -14 c 0,71,56
 430 -14 430 -14 399 4 c 128,-1,57
523 64 m 128,-1,73
 546 87 546 87 546 120 c 256,74,75
 546 153 546 153 523 176.5 c 128,-1,76
 500 200 500 200 467 200 c 0,77,78
 433 200 433 200 410 176.5 c 128,-1,79
 387 153 387 153 387 120 c 256,80,81
 387 87 387 87 410 64 c 128,-1,82
 433 41 433 41 467 41 c 0,83,72
 500 41 500 41 523 64 c 128,-1,73
40 321 m 1,84,-1
 597 521 l 1,85,-1
 597 457 l 1,86,-1
 40 258 l 1,87,-1
 40 321 l 1,84,-1
EndSplineSet
EndChar
StartChar: Euro
Encoding: 8364 8364 305
Width: 632
GlyphClass: 1
Flags: W
LayerCount: 2
Fore
SplineSet
193 57 m 128,-1,1
 127 127 127 127 108 241 c 1,2,-1
 22 241 l 1,3,-1
 47 291 l 1,4,-1
 102 291 l 1,5,6
 101 304 101 304 101 330 c 0,7,8
 101 362 101 362 103 378 c 1,9,-1
 22 378 l 1,10,-1
 47 428 l 1,11,-1
 109 428 l 1,12,13
 124 510 124 510 162.5 567.5 c 128,-1,14
 201 625 201 625 255 653.5 c 128,-1,15
 309 682 309 682 370 682 c 0,16,17
 444 682 444 682 503.5 642 c 128,-1,18
 563 602 563 602 594 528 c 1,19,-1
 520 501 l 1,20,21
 500 550 500 550 461.5 579 c 128,-1,22
 423 608 423 608 367 608 c 0,23,24
 299 608 299 608 253 563 c 128,-1,25
 207 518 207 518 192 428 c 1,26,-1
 434 428 l 1,27,-1
 409 378 l 1,28,-1
 186 378 l 1,29,30
 184 350 184 350 184 335 c 0,31,32
 184 321 184 321 186 291 c 1,33,-1
 370 291 l 1,34,-1
 345 241 l 1,35,-1
 194 241 l 1,36,37
 210 160 210 160 255 110.5 c 128,-1,38
 300 61 300 61 366 61 c 0,39,40
 423 61 423 61 463 89 c 128,-1,41
 503 117 503 117 524 166 c 1,42,-1
 597 139 l 1,43,44
 565 65 565 65 504 26 c 128,-1,45
 443 -13 443 -13 365 -13 c 0,46,0
 259 -13 259 -13 193 57 c 128,-1,1
EndSplineSet
EndChar
StartChar: uni20B9
Encoding: 8377 8377 306
Width: 632
GlyphClass: 1
Flags: W
LayerCount: 2
Fore
SplineSet
95 290 m 1,0,-1
 95 342 l 1,1,-1
 207 342 l 2,2,3
 286 342 286 342 328.5 366 c 128,-1,4
 371 390 371 390 378 443 c 1,5,-1
 95 443 l 1,6,-1
 95 493 l 1,7,-1
 378 493 l 1,8,9
 365 595 365 595 207 595 c 2,10,-1
 95 595 l 1,11,-1
 95 668 l 1,12,-1
 554 668 l 1,13,-1
 554 618 l 1,14,-1
 387 618 l 1,15,16
 459 577 459 577 468 493 c 1,17,-1
 554 493 l 1,18,-1
 554 443 l 1,19,-1
 468 443 l 1,20,21
 460 362 460 362 397.5 320 c 128,-1,22
 335 278 335 278 229 273 c 1,23,-1
 222 273 l 1,24,-1
 496 0 l 1,25,-1
 383 0 l 1,26,-1
 95 290 l 1,0,-1
EndSplineSet
EndChar
StartChar: uni2113
Encoding: 8467 8467 299
Width: 632
GlyphClass: 1
Flags: W
LayerCount: 2
Fore
SplineSet
246 25.5 m 128,-1,1
 212 63 212 63 212 140 c 2,2,-1
 212 189 l 1,3,-1
 145 139 l 1,4,-1
 145 213 l 1,5,-1
 212 264 l 1,6,-1
 212 502 l 2,7,8
 212 585 212 585 246 632.5 c 128,-1,9
 280 680 280 680 349 680 c 0,10,11
 409 680 409 680 442 641 c 128,-1,12
 475 602 475 602 475 538 c 0,13,14
 475 454 475 454 431 387.5 c 128,-1,15
 387 321 387 321 294 247 c 1,16,-1
 294 153 l 2,17,18
 294 59 294 59 361 59 c 0,19,20
 406 59 406 59 450 98 c 1,21,-1
 486 42 l 1,22,23
 462 19 462 19 426.5 3.5 c 128,-1,24
 391 -12 391 -12 353 -12 c 0,25,0
 280 -12 280 -12 246 25.5 c 128,-1,1
376 424 m 128,-1,27
 403 478 403 478 403 535 c 0,28,29
 403 576 403 576 389 596 c 128,-1,30
 375 616 375 616 349 616 c 0,31,32
 294 616 294 616 294 519 c 2,33,-1
 294 326 l 1,34,26
 349 370 349 370 376 424 c 128,-1,27
EndSplineSet
EndChar
StartChar: product
Encoding: 8719 8719 328
Width: 632
GlyphClass: 1
Flags: W
LayerCount: 2
Fore
SplineSet
84 668 m 1,0,-1
 548 668 l 1,1,-1
 548 -162 l 1,2,-1
 468 -162 l 1,3,-1
 468 589 l 1,4,-1
 163 589 l 1,5,-1
 163 -162 l 1,6,-1
 84 -162 l 1,7,-1
 84 668 l 1,0,-1
EndSplineSet
EndChar
StartChar: summation
Encoding: 8721 8721 329
Width: 632
GlyphClass: 1
Flags: W
LayerCount: 2
Fore
SplineSet
77 -83 m 1,0,-1
 323 253 l 1,1,-1
 77 589 l 1,2,-1
 77 668 l 1,3,-1
 555 668 l 1,4,-1
 555 589 l 1,5,-1
 175 589 l 1,6,-1
 420 253 l 1,7,-1
 175 -83 l 1,8,-1
 555 -83 l 1,9,-1
 555 -162 l 1,10,-1
 77 -162 l 1,11,-1
 77 -83 l 1,0,-1
EndSplineSet
EndChar
StartChar: minus
Encoding: 8722 8722 312
Width: 632
GlyphClass: 1
Flags: W
LayerCount: 2
Fore
SplineSet
65 287 m 1,0,-1
 567 287 l 1,1,-1
 567 212 l 1,2,-1
 65 212 l 1,3,-1
 65 287 l 1,0,-1
EndSplineSet
EndChar
StartChar: integral
Encoding: 8747 8747 327
Width: 632
GlyphClass: 1
Flags: W
LayerCount: 2
Fore
SplineSet
163 -154.5 m 128,-1,1
 140 -136 140 -136 140 -110 c 0,2,3
 140 -89 140 -89 153.5 -75 c 128,-1,4
 167 -61 167 -61 190 -61 c 0,5,6
 214 -61 214 -61 227.5 -75 c 128,-1,7
 241 -89 241 -89 241 -112 c 0,8,9
 241 -122 241 -122 238 -129 c 1,10,11
 273 -120 273 -120 274 -34 c 2,12,-1
 278 479 l 2,13,14
 279 594 279 594 314 637.5 c 128,-1,15
 349 681 349 681 408 681 c 0,16,17
 447 681 447 681 470 663 c 128,-1,18
 493 645 493 645 493 619 c 0,19,20
 493 598 493 598 479.5 584 c 128,-1,21
 466 570 466 570 443 570 c 0,22,23
 419 570 419 570 405.5 584 c 128,-1,24
 392 598 392 598 392 621 c 0,25,26
 392 631 392 631 395 638 c 1,27,28
 360 629 360 629 359 543 c 2,29,-1
 355 30 l 2,30,31
 354 -85 354 -85 319 -129 c 128,-1,32
 284 -173 284 -173 225 -173 c 0,33,0
 186 -173 186 -173 163 -154.5 c 128,-1,1
EndSplineSet
EndChar
StartChar: approxequal
Encoding: 8776 8776 322
Width: 632
GlyphClass: 1
Flags: W
LayerCount: 2
Fore
SplineSet
204 229 m 0,1,2
 231 229 231 229 257.5 220.5 c 128,-1,3
 284 212 284 212 326 194 c 0,4,5
 359 180 359 180 381.5 172.5 c 128,-1,6
 404 165 404 165 424 165 c 0,7,8
 481 165 481 165 487 234 c 1,9,-1
 552 215 l 1,10,11
 539 92 539 92 428 92 c 0,12,13
 401 92 401 92 372.5 101 c 128,-1,14
 344 110 344 110 307 126 c 0,15,16
 274 140 274 140 251 147.5 c 128,-1,17
 228 155 228 155 208 155 c 0,18,19
 150 155 150 155 146 86 c 1,20,-1
 80 105 l 1,21,0
 95 229 95 229 204 229 c 0,1,2
204 421 m 0,23,24
 231 421 231 421 256 413 c 128,-1,25
 281 405 281 405 326 387 c 0,26,27
 359 373 359 373 381.5 365.5 c 128,-1,28
 404 358 404 358 424 358 c 0,29,30
 481 358 481 358 487 426 c 1,31,-1
 552 408 l 1,32,33
 539 284 539 284 428 284 c 0,34,35
 402 284 402 284 375.5 292.5 c 128,-1,36
 349 301 349 301 307 318 c 0,37,38
 275 332 275 332 251.5 340 c 128,-1,39
 228 348 228 348 208 348 c 0,40,41
 150 348 150 348 146 279 c 1,42,-1
 80 298 l 1,43,22
 95 421 95 421 204 421 c 0,23,24
EndSplineSet
EndChar
StartChar: lessequal
Encoding: 8804 8804 320
Width: 632
GlyphClass: 1
Flags: W
LayerCount: 2
Fore
SplineSet
81 264 m 1,0,-1
 81 338 l 1,1,-1
 551 491 l 1,2,-1
 551 409 l 1,3,-1
 190 301 l 1,4,-1
 551 194 l 1,5,-1
 551 112 l 1,6,-1
 81 264 l 1,0,-1
81 77 m 1,7,-1
 551 77 l 1,8,-1
 551 0 l 1,9,-1
 81 0 l 1,10,-1
 81 77 l 1,7,-1
EndSplineSet
EndChar
StartChar: lozenge
Encoding: 9674 9674 334
Width: 632
GlyphClass: 1
Flags: W
LayerCount: 2
Fore
SplineSet
90 315 m 1,0,-1
 317 702 l 1,1,-1
 542 315 l 1,2,-1
 317 -72 l 1,3,-1
 90 315 l 1,0,-1
457 315 m 1,4,-1
 317 557 l 1,5,-1
 175 315 l 1,6,-1
 317 74 l 1,7,-1
 457 315 l 1,4,-1
EndSplineSet
EndChar
StartChar: uni0307.case
Encoding: 65541 -1 338
Width: 0
GlyphClass: 4
Flags: W
AnchorPoint: "Anchor-5" 316 841 basemark 0
AnchorPoint: "Anchor-5" 316 668 mark 0
AnchorPoint: "Anchor-1" 316 668 mark 0
LayerCount: 2
Fore
SplineSet
277.5 747.5 m 128,-1,1
 261 764 261 764 261 786 c 256,2,3
 261 808 261 808 277.5 824.5 c 128,-1,4
 294 841 294 841 316 841 c 256,5,6
 338 841 338 841 354.5 824.5 c 128,-1,7
 371 808 371 808 371 786 c 256,8,9
 371 764 371 764 354.5 747.5 c 128,-1,10
 338 731 338 731 316 731 c 256,11,0
 294 731 294 731 277.5 747.5 c 128,-1,1
EndSplineSet
EndChar
StartChar: uni0328.case
Encoding: 65554 -1 363
Width: 0
GlyphClass: 4
Flags: W
AnchorPoint: "Anchor-2" 396 10 mark 0
LayerCount: 2
Fore
SplineSet
263 -148 m 128,-1,1
 237 -126 237 -126 237 -91 c 0,2,3
 237 -28 237 -28 318 9 c 1,4,-1
 396 0 l 1,5,6
 359 -10 359 -10 333.5 -32 c 128,-1,7
 308 -54 308 -54 308 -78 c 0,8,9
 308 -98 308 -98 321 -108 c 128,-1,10
 334 -118 334 -118 355 -118 c 0,11,12
 375 -118 375 -118 396 -110 c 1,13,-1
 396 -161 l 1,14,15
 372 -170 372 -170 338 -170 c 0,16,0
 289 -170 289 -170 263 -148 c 128,-1,1
EndSplineSet
EndChar
